<svg width="171" height="51" viewBox="0 0 171 51" fill="none" xmlns="http://www.w3.org/2000/svg">
<g clip-path="url(#clip0_762_2802)">
<rect x="0.5" y="0.5" width="170" height="50" rx="7.5" stroke="white"/>
<path d="M31.4768 25.3594C31.4909 24.2527 31.7823 23.1677 32.3238 22.2051C32.8653 21.2426 33.6394 20.4339 34.574 19.8543C33.9803 18.9989 33.197 18.2949 32.2865 17.7983C31.3759 17.3017 30.3631 17.0262 29.3285 16.9935C27.1216 16.7598 24.982 18.3258 23.8574 18.3258C22.711 18.3258 20.9794 17.0167 19.1149 17.0554C17.9088 17.0947 16.7334 17.4485 15.7032 18.0824C14.6729 18.7162 13.823 19.6085 13.2363 20.6722C10.6946 25.1118 12.5905 31.6364 15.0252 35.2251C16.2434 36.9823 17.6671 38.9452 19.5301 38.8756C21.353 38.7993 22.0339 37.7029 24.2343 37.7029C26.4144 37.7029 27.0531 38.8756 28.9538 38.8313C30.91 38.7993 32.1424 37.0663 33.3179 35.2924C34.1931 34.0403 34.8666 32.6564 35.3135 31.1921C34.177 30.7072 33.2072 29.8955 32.5249 28.8583C31.8427 27.8211 31.4781 26.6042 31.4768 25.3594Z" fill="white"/>
<path d="M27.8859 14.633C28.9525 13.3413 29.478 11.6811 29.3507 10.0049C27.7213 10.1775 26.2161 10.9632 25.1351 12.2053C24.6066 12.8121 24.2018 13.518 23.9439 14.2828C23.686 15.0475 23.58 15.856 23.632 16.6621C24.447 16.6705 25.2533 16.4923 25.9902 16.1408C26.727 15.7894 27.3752 15.2738 27.8859 14.633Z" fill="white"/>
<path d="M53.3473 34.6033H47.365L45.9284 38.8828H43.3945L49.0608 23.0498H51.6934L57.3597 38.8828H54.7826L53.3473 34.6033ZM47.9846 32.6285H52.7265L50.3889 25.6833H50.3235L47.9846 32.6285Z" fill="white"/>
<path d="M69.5968 33.1121C69.5968 36.6993 67.6937 39.004 64.8216 39.004C64.0941 39.0424 63.3706 38.8733 62.7338 38.5161C62.0971 38.1589 61.573 37.6281 61.2214 36.9844H61.1671V42.702H58.8184V27.3397H61.0918V29.2597H61.135C61.5027 28.619 62.0357 28.0909 62.6773 27.7316C63.3188 27.3722 64.0449 27.1951 64.7784 27.2189C67.6826 27.2189 69.5968 29.5348 69.5968 33.1121ZM67.1827 33.1121C67.1827 30.775 65.9855 29.2385 64.1589 29.2385C62.3643 29.2385 61.1572 30.8074 61.1572 33.1121C61.1572 35.438 62.3643 36.9956 64.1589 36.9956C65.9855 36.9956 67.1827 35.4703 67.1827 33.1121Z" fill="white"/>
<path d="M82.1912 33.1121C82.1912 36.6993 80.2874 39.004 77.4154 39.004C76.6878 39.0424 75.9643 38.8733 75.3276 38.5161C74.6909 38.1589 74.1667 37.6281 73.8152 36.9844H73.7608V42.702H71.4121V27.3397H73.6855V29.2597H73.7287C74.0965 28.619 74.6295 28.0909 75.271 27.7316C75.9126 27.3722 76.6387 27.1951 77.3721 27.2189C80.2763 27.2189 82.1912 29.5348 82.1912 33.1121ZM79.7764 33.1121C79.7764 30.775 78.5792 29.2385 76.7526 29.2385C74.9581 29.2385 73.751 30.8074 73.751 33.1121C73.751 35.438 74.9581 36.9956 76.7526 36.9956C78.5792 36.9956 79.7764 35.4703 79.7764 33.1121H79.7764Z" fill="white"/>
<path d="M90.5137 34.4716C90.6877 36.0417 92.1997 37.0726 94.2657 37.0726C96.2454 37.0726 97.6697 36.0417 97.6697 34.626C97.6697 33.397 96.8107 32.6612 94.7767 32.1569L92.7427 31.6626C89.8608 30.9603 88.5229 29.6007 88.5229 27.3943C88.5229 24.6625 90.8827 22.7861 94.2324 22.7861C97.55 22.7861 99.8234 24.6625 99.8999 27.3943H97.529C97.387 25.8143 96.0923 24.8605 94.2003 24.8605C92.3082 24.8605 91.0135 25.8255 91.0135 27.23C91.0135 28.3493 91.8405 29.008 93.8633 29.5122L95.5925 29.9405C98.8125 30.7088 100.149 32.0137 100.149 34.3296C100.149 37.2917 97.8116 39.1469 94.0916 39.1469C90.6111 39.1469 88.2612 37.3353 88.1094 34.4715L90.5137 34.4716Z" fill="white"/>
<path d="M105.221 24.6074V27.3392H107.397V29.2156H105.221V35.5794C105.221 36.568 105.656 37.0287 106.613 37.0287C106.871 37.0242 107.129 37.0059 107.386 36.9739V38.8391C106.956 38.9201 106.518 38.9569 106.081 38.9486C103.764 38.9486 102.861 38.0708 102.861 35.8321V29.2156H101.197V27.3392H102.861V24.6074H105.221Z" fill="white"/>
<path d="M108.656 33.1116C108.656 29.4796 110.777 27.1973 114.083 27.1973C117.401 27.1973 119.511 29.4795 119.511 33.1116C119.511 36.7535 117.412 39.0259 114.083 39.0259C110.756 39.0259 108.656 36.7535 108.656 33.1116ZM117.118 33.1116C117.118 30.6201 115.986 29.1496 114.083 29.1496C112.18 29.1496 111.048 30.6313 111.048 33.1116C111.048 35.613 112.18 37.0723 114.083 37.0723C115.986 37.0723 117.118 35.613 117.118 33.1116H117.118Z" fill="white"/>
<path d="M121.447 27.3396H123.687V29.3044H123.742C123.893 28.6907 124.25 28.1484 124.751 27.7686C125.252 27.3888 125.868 27.1947 126.494 27.2188C126.765 27.2178 127.035 27.2475 127.299 27.3072V29.5235C126.957 29.4182 126.601 29.3698 126.243 29.3803C125.902 29.3664 125.562 29.4271 125.246 29.5582C124.931 29.6894 124.647 29.888 124.414 30.1403C124.182 30.3926 124.006 30.6927 123.899 31.0199C123.793 31.3472 123.757 31.6939 123.796 32.0362V38.8831H121.447L121.447 27.3396Z" fill="white"/>
<path d="M138.128 35.4922C137.812 37.5878 135.79 39.0259 133.201 39.0259C129.873 39.0259 127.807 36.7759 127.807 33.1664C127.807 29.5456 129.884 27.1973 133.103 27.1973C136.268 27.1973 138.259 29.3912 138.259 32.8912V33.703H130.178V33.8462C130.14 34.271 130.193 34.699 130.332 35.1017C130.471 35.5044 130.694 35.8726 130.985 36.1818C131.276 36.4911 131.629 36.7343 132.021 36.8953C132.412 37.0564 132.833 37.1316 133.256 37.1159C133.811 37.1683 134.368 37.0386 134.844 36.7461C135.32 36.4536 135.69 36.0138 135.898 35.4922L138.128 35.4922ZM130.189 32.047H135.909C135.93 31.665 135.873 31.2828 135.741 30.9242C135.608 30.5657 135.404 30.2386 135.141 29.9635C134.877 29.6884 134.56 29.4712 134.209 29.3256C133.859 29.1799 133.482 29.109 133.103 29.1172C132.72 29.1149 132.341 29.1891 131.987 29.3354C131.633 29.4817 131.311 29.6972 131.041 29.9696C130.77 30.242 130.555 30.5658 130.409 30.9224C130.262 31.2789 130.188 31.6611 130.189 32.047V32.047Z" fill="white"/>
<path d="M47.6927 11.1327C48.1851 11.097 48.6792 11.172 49.1394 11.3524C49.5995 11.5327 50.0143 11.8138 50.3538 12.1754C50.6932 12.537 50.9489 12.9701 51.1023 13.4435C51.2558 13.9169 51.3032 14.4187 51.2411 14.9128C51.2411 17.3432 49.939 18.7403 47.6927 18.7403H44.9688V11.1327H47.6927ZM46.14 17.6645H47.5618C47.9137 17.6857 48.2658 17.6275 48.5926 17.4941C48.9193 17.3607 49.2125 17.1555 49.4507 16.8934C49.6889 16.6313 49.8662 16.3189 49.9697 15.979C50.0731 15.6391 50.1002 15.2801 50.0488 14.9283C50.0964 14.5779 50.0667 14.2212 49.9616 13.8838C49.8566 13.5463 49.6788 13.2365 49.4412 12.9765C49.2035 12.7165 48.9117 12.5127 48.5868 12.3798C48.2619 12.2469 47.9119 12.1882 47.5618 12.2078H46.14V17.6645Z" fill="white"/>
<path d="M52.5635 15.8666C52.5277 15.4893 52.5705 15.1086 52.6891 14.749C52.8077 14.3893 52.9995 14.0587 53.2522 13.7782C53.5049 13.4977 53.8129 13.2736 54.1565 13.1203C54.5 12.9669 54.8716 12.8877 55.2473 12.8877C55.623 12.8877 55.9945 12.9669 56.3381 13.1203C56.6817 13.2736 56.9897 13.4977 57.2424 13.7782C57.4951 14.0587 57.6869 14.3893 57.8055 14.749C57.9241 15.1086 57.9669 15.4893 57.9311 15.8666C57.9676 16.2443 57.9253 16.6255 57.807 16.9857C57.6887 17.3459 57.497 17.6772 57.2443 17.9582C56.9915 18.2392 56.6833 18.4638 56.3393 18.6175C55.9954 18.7712 55.6234 18.8506 55.2473 18.8506C54.8711 18.8506 54.4991 18.7712 54.1552 18.6175C53.8113 18.4638 53.5031 18.2392 53.2503 17.9582C52.9975 17.6772 52.8059 17.3459 52.6876 16.9857C52.5693 16.6255 52.527 16.2443 52.5635 15.8666ZM56.7759 15.8666C56.7759 14.6221 56.2217 13.8943 55.2491 13.8943C54.2729 13.8943 53.7237 14.6221 53.7237 15.8666C53.7237 17.1211 54.2729 17.8432 55.2491 17.8432C56.2217 17.8432 56.7759 17.1161 56.7759 15.8666H56.7759Z" fill="white"/>
<path d="M65.0663 18.7403H63.9012L62.725 14.5118H62.6362L61.4649 18.7403H60.3109L58.7422 12.999H59.8814L60.9008 17.3799H60.9848L62.1548 12.999H63.2323L64.4023 17.3799H64.4912L65.5057 12.999H66.6288L65.0663 18.7403Z" fill="white"/>
<path d="M67.9492 12.9993H69.0304V13.9113H69.1143C69.2567 13.5838 69.4968 13.3092 69.8013 13.1258C70.1057 12.9425 70.4592 12.8595 70.8126 12.8885C71.0895 12.8675 71.3676 12.9096 71.6261 13.0117C71.8847 13.1138 72.1172 13.2733 72.3064 13.4784C72.4956 13.6835 72.6366 13.9289 72.719 14.1964C72.8014 14.4639 72.8231 14.7467 72.7824 15.0238V18.7405H71.6593V15.3084C71.6593 14.3857 71.2619 13.9269 70.4312 13.9269C70.2432 13.9181 70.0556 13.9503 69.8811 14.0215C69.7066 14.0927 69.5494 14.2011 69.4204 14.3393C69.2913 14.4775 69.1934 14.6422 69.1333 14.8222C69.0732 15.0021 69.0524 15.193 69.0724 15.3818V18.7405H67.9492V12.9993Z" fill="white"/>
<path d="M74.5723 10.7578H75.6954V18.7403H74.5723V10.7578Z" fill="white"/>
<path d="M77.2568 15.8667C77.2211 15.4894 77.2639 15.1087 77.3825 14.749C77.5011 14.3894 77.6929 14.0587 77.9457 13.7782C78.1984 13.4977 78.5064 13.2736 78.85 13.1203C79.1936 12.9669 79.5652 12.8877 79.9409 12.8877C80.3167 12.8877 80.6882 12.9669 81.0318 13.1203C81.3754 13.2736 81.6835 13.4977 81.9362 13.7782C82.1889 14.0587 82.3807 14.3894 82.4994 14.749C82.618 15.1087 82.6608 15.4894 82.625 15.8667C82.6615 16.2444 82.6191 16.6256 82.5008 16.9858C82.3825 17.346 82.1908 17.6773 81.938 17.9583C81.6852 18.2393 81.377 18.4639 81.033 18.6176C80.6891 18.7712 80.3171 18.8506 79.9409 18.8506C79.5648 18.8506 79.1928 18.7712 78.8488 18.6176C78.5049 18.4639 78.1966 18.2393 77.9439 17.9583C77.6911 17.6773 77.4994 17.346 77.381 16.9858C77.2627 16.6256 77.2204 16.2444 77.2568 15.8667ZM81.4692 15.8667C81.4692 14.6222 80.915 13.8944 79.9425 13.8944C78.9662 13.8944 78.417 14.6222 78.417 15.8667C78.417 17.1212 78.9662 17.8433 79.9425 17.8433C80.915 17.8433 81.4692 17.1162 81.4692 15.8667Z" fill="white"/>
<path d="M83.8066 17.1161C83.8066 16.0827 84.5694 15.4869 85.9233 15.4022L87.4649 15.3126V14.817C87.4649 14.2106 87.0674 13.8682 86.2998 13.8682C85.6728 13.8682 85.2383 14.1004 85.1137 14.5063H84.0263C84.1411 13.5202 85.0606 12.8877 86.3516 12.8877C87.7784 12.8877 88.5831 13.6042 88.5831 14.817V18.7397H87.5019V17.9329H87.413C87.2327 18.2223 86.9794 18.4583 86.6791 18.6166C86.3787 18.775 86.0421 18.8501 85.7036 18.8343C85.4647 18.8594 85.2233 18.8337 84.9948 18.7589C84.7664 18.684 84.556 18.5617 84.3773 18.3998C84.1985 18.2379 84.0554 18.0401 83.9571 17.819C83.8588 17.5979 83.8076 17.3584 83.8066 17.1161ZM87.4649 16.6255V16.1455L86.0752 16.2352C85.2914 16.2881 84.936 16.557 84.936 17.0632C84.936 17.5799 85.3803 17.8806 85.9913 17.8806C86.1703 17.8989 86.3511 17.8806 86.523 17.827C86.6949 17.7733 86.8543 17.6853 86.9918 17.5682C87.1293 17.4511 87.242 17.3073 87.3233 17.1454C87.4046 16.9834 87.4527 16.8066 87.4649 16.6255Z" fill="white"/>
<path d="M90.0586 15.8672C90.0586 14.053 90.983 12.9038 92.4209 12.9038C92.7765 12.8873 93.1295 12.9732 93.4386 13.1516C93.7476 13.3299 93.9999 13.5934 94.1661 13.911H94.25V10.7578H95.3731V18.7403H94.2969V17.8332H94.208C94.0291 18.1487 93.7679 18.4089 93.4529 18.5854C93.1379 18.762 92.781 18.8483 92.4209 18.8349C90.9732 18.8349 90.0586 17.6857 90.0586 15.8672ZM91.2188 15.8672C91.2188 17.0849 91.7878 17.8177 92.7394 17.8177C93.686 17.8177 94.271 17.0743 94.271 15.8722C94.271 14.6756 93.6798 13.9217 92.7394 13.9217C91.7939 13.9217 91.2188 14.6594 91.2188 15.8672H91.2188Z" fill="white"/>
<path d="M100.156 11.3011C100.147 11.1544 100.182 11.0084 100.257 10.882C100.331 10.7557 100.442 10.6549 100.574 10.5926C100.706 10.5303 100.853 10.5094 100.997 10.5327C101.141 10.5559 101.275 10.6222 101.381 10.723C101.487 10.8238 101.56 10.9544 101.592 11.0979C101.624 11.2414 101.612 11.3912 101.558 11.5278C101.505 11.6645 101.412 11.7818 101.291 11.8645C101.171 11.9471 101.028 11.9914 100.883 11.9915C100.789 11.9963 100.696 11.9821 100.609 11.9496C100.521 11.9172 100.441 11.8672 100.373 11.8027C100.305 11.7382 100.251 11.6605 100.214 11.5743C100.176 11.4881 100.156 11.3952 100.156 11.3011ZM100.322 12.9988H101.442V18.7401H100.322V12.9988Z" fill="white"/>
<path d="M103.254 12.9993H104.335V13.9113H104.419C104.561 13.5838 104.802 13.3092 105.106 13.1258C105.41 12.9425 105.764 12.8595 106.117 12.8885C106.394 12.8675 106.672 12.9096 106.931 13.0117C107.189 13.1138 107.422 13.2733 107.611 13.4784C107.8 13.6835 107.941 13.9289 108.024 14.1964C108.106 14.4639 108.128 14.7467 108.087 15.0238V18.7405H106.964V15.3084C106.964 14.3857 106.567 13.9269 105.736 13.9269C105.548 13.9181 105.36 13.9503 105.186 14.0215C105.011 14.0927 104.854 14.2011 104.725 14.3393C104.596 14.4775 104.498 14.6422 104.438 14.8222C104.378 15.0021 104.357 15.193 104.377 15.3818V18.7405H103.254V12.9993Z" fill="white"/>
</g>
<defs>
<clipPath id="clip0_762_2802">
<rect width="171" height="51" fill="white"/>
</clipPath>
</defs>
</svg>
