<svg width="410" height="56" viewBox="0 0 410 56" xmlns="http://www.w3.org/2000/svg" xmlns:xlink="http://www.w3.org/1999/xlink"><g fill="none" fill-rule="evenodd"><path d="M115.106 42.439c-.068.141-.102.122-.122.342.153.054.289.06.524.053l.19-.275c-.109-.167-.388-.133-.592-.12zm-17.309.411c.264.022.189.069.261-.006.111-.082.088-.046.125-.21-.18-.116-.112-.226-.398-.259a.878.878 0 0 0-.056.342l.068.133zm32.32-9.097l.006.204c.178-.055.146-.024.19-.21l-.196.006zm.838-.498l-.007-.271c-.265-.09-.19-.139-.263-.06l-.194.072.071.202.393.057zm-1.125-.58l-.005-.201-.263-.062c-.036.105-.047.113-.058.273l.326-.01zm-26.912-9.898l.214.673.11 1.827-.124.275-.056.34-.06.205-.18.682-.248.55-.06.206-.054.476-.254.277-.055.409-.061.204-.182.548-.125.275-.059.205-.124.273-.186.413-.18.615-.124.275-.06.206-.117.545-.121.41-.181.615-.126.207-.188.344-.125.206-.194.141-.057.274-.058.34-.12.343-.127.207-.12.409-.125.275-.122.342-.06.205a1.808 1.808 0 0 0-.304.888c.16.06.406.06.655.051.145-.172.231-.12.451-.216l.26-.076.192-.207.39-.079.452-.216.125-.207.847-.09.195-.074.454-.149.39-.077.259-.144.78-.157.387-.147.652-.084.259-.143.193-.074.913-.092.258-.143.846-.16.779-.224.192-.073.455-.15.783-.088.389-.078.195-.074 1.108-.098c.096-.02.272-.134.455-.08l.198.062.461.122.336.397c.102.277.72.612.931.653l.073.27-.058.271.073.337-.124.275-.126.208-.776.292-.844.227-.258.142-.978.095-.258.142-1.108.098-.26.076-.259.143-.585.085-.258.142-.91.162-.389.212-.452.216-.454.15-.258.073-.456.082-.257.143-.456.08-.192.14-.389.146-.324.144-.711.293-.193.14-.454.148-.19.21-.39.078a1.167 1.167 0 0 1-.517.285l.013.474c.162.355.44.515.672.727l.198.132.267.194.4.328.328.058.265.129.263.06.198.062.854.181.655.117.525.054 1.306-.037.26-.074 1.371-.038.195-.074.259-.075.977-.095.39-.08.324-.142c.158-.125.244-.01.327-.01l.783-.09.52-.082 1.302-.24.458.057.257-.143.976-.163.198.062c.232.276.285.32.597.321l.126-.205.06-.207.124-.206.095-1.494.06-.205.11-.816.06-.204.122-.343.056-.41.057-.34.108-.882.061-.206.114-.68.036-1.155.124-.274.05-.612.124-.274.06-.206.055-.408.378-.553.261-.075.126-.208.383-.349c.282-.01.858.114.985.245.092.077.103.12.138.267l.393-.01c.26-.142.222-.29.38-.418.189-.15.321-.135.382-.418l.195-.072.195-.073.191-.073.324-.145 1.372-.039.85-.024 1.306-.035.198.062.263.129.329.059.2.062.919.178.058-.273c.263-.002.358.021.525.121l.657.117.197.063.59.05.264.13.072.268c.142.02.128.063.132.064l.458-.011.334.329c.284.106.593.655.612.933-.17.104-.295.375-.647.288l-.196-.061-.197.004-.188.343-.522.016-.125.206-.393.012-.187.275-.328.01-1.698.046-1.175.1-.78.09-.26.076-1.173.1-.388.213-.19.21c-.303.148-.453.058-.585.15l-.126.207-.192.142-.319.28-.058.34-.19.208-.127.208-.175.817-.06.207-.178.75-.059.273.013.542-.044.815-.044.883-.186.41c-.011.243.097.389.145.539l.028 1.151c.055.176.256.701.157 1.013l-.186.413-.055.475-.19.209.006.202-.125.276-.194.073-.19.208-.257.21-.256.212c-.209.139-.255.121-.322.21-.271-.051-.454-.205-.66-.32l-.2-.13-.267-.195c-.158-.1-.33-.045-.462-.192-.072-.076-.007-.163-.073-.268l-.265-.196-.268-.264-.332-.193c-.12-.185.033-.516-.084-.744-.225-.213-.352-.19-.724-.185-.092.119-.32.273-.448.354l-.192.14-.521.082-.257.142-.39.148-.257.142-.194.072-.191.21-.523.014-.323.145-.717.088-.258.141-.193.14-.718.021-.189.277c-.24.147-.721-.03-.978.096l-.193.14-1.501.041-1.24.102-.26.076-.194.072-.457.014c-.175-.117-.302-.002-.392.01l-.85-.044-.524-.054-.265-.127-.654-.05-.201-.199-.397-.125-.199-.129-.393-.057-.2-.198-.197.006-.265-.13-.33-.193c-.346-.213-.64-.6-1.128-.646-.084.106-.26.225-.386.283l-.261.005-.06.274.075.337-.258.142-.19.208-.392.011c-.125.115-.899.28-1.04.234l-.461-.124-.266-.13-.268-.33c-.363-.126-.54-.256-.858-.315-.163-.232-.112-.331-.206-.401l-.262-.061-.203-.265-.136-.2-.135-.199-.074-.337-.2-.198-.08-.54-.137-.267-.135-.2-.083-.676c-.046-.202-.191-1.06-.098-1.353l.165-1.225.19-.21.051-.542.06-.272.059-.206.055-.476.19-.21-.005-.201.124-.275.256-.211-.008-.337.19-.21.174-.886.188-.345.186-.412.06-.205.123-.274.06-.273.124-.274.122-.342.185-.412.124-.275.118-.546c.238-.27.199-.425.378-.552l.194-.073c-.024-.164-.158-.453-.144-.54l.06-.204.24-.82.125-.275.058-.272.177-.819.319-.28.115-.613.124-.275.06-.204.126-.275.115-.545.125-.276.053-.475.124-.275.06-.204.122-.343.175-.886.12-.41c-.06-.363-.008-.89.105-1.021.107-.14.148-.06.258-.142l.126-.207c.328-.246.582-.202.977-.095l.523-.014.266.128.201.266.72.048.265.127zm37.252 16.215l.211.11-.211-.11zm-9.742.654l.016.133.046-.143-.062.01zm5.069-1.853l-1.214.233-.12.085-.047.143-.193.026-.114.152-.248.104-.369.186-.36.253-.122.085-.729.44-.16.295-.129.017-.111.152.017.134-.121.084-.247.104-.176.16.016.133c.212.083.13.112.468.072.182-.404.434-.226.794-.449l.304-.177.241-.17.185-.093.25-.104.12-.083.167-.228.192-.027.104-.216.314-.114.12-.084.047-.142.194-.026c.361-.207.9-.286.954-.744l-.027-.201zm5.263 2.754c.046.13.219.308.188.453l-.12.083-.087.353.202.04c.141.048.116.066.163.251a.42.42 0 0 0-.17.228c.166.25.348.25.512.406l.515-.07c.087-.125.382-.267.562-.213l.082.125.532.062c.046.212.122.426.261.51l.129-.019.144.117.078.604.188.45a.634.634 0 0 0-.112.153l-.387.053-.184.092-.12.085-.07.487-.464.472-.095.286-.256.034-.16.295-.369.186-.223.305.015.132c-.04.076-.178.147-.23.237-.127-.004-.138-.05-.138-.05l-.58.08-.137-.049-.485-.207-.347-.156-.154-.183-.357-.224-.128.018-.227-.242-.081-.126-.428-.28-.017-.135-.283-.165-.026-.202-.09-.19-.163-.252-.09-.193-.162-.25-.15-.66c-.055-.132-.24-.42-.213-.654l-.005-.545-.081-.123-.067-.535c-.194-.048-.504-.002-.782.038l-.622.767.05.401-.7.164-.201-.04.025.2c-.062.044-.097.142-.111.152l-.195.026-.304.179-.103.219-.129.016-.387.053-.118.086-.16.293-.25.103-.038.21c-.041.069-.127.07-.177.16-.151-.046-.195-.086-.405-.082l-.196.504-.129.018-.047.144-.25.101-.174.16-.106.218-.184.095-.046.141-.194.027-1.335.318-.168.228.019.135c-.1.178-.406.313-.675.365-.224-.171-.365.012-.66-.046l-.202-.041-.139-.048-.468-.073-.282-.165-.518-.475-.155-.183-.09-.191-.081-.125-.136-.05-.018-.135-.21-.106-.446-.416-.1-.26c-.177-.11-.198-.138-.243-.376l-.118-.935.095-.287.039-.21.047-.142.232-.238-.017-.134.158-.294.337-.454-.016-.134.046-.143.169-.227.367-.187.272-.446-.016-.134.167-.229.129-.014.12-.087.174-.16.162-.293c.076-.074.25-.084.306-.18l.029-.276.24-.169.046-.142.345-.39.272-.444.128-.02.048-.141.185-.094.12-.084.103-.219.25-.102.215-.37.247-.103.104-.219.129-.016.048-.142.129-.02.046-.142.25-.1.272-.448.31-.11.05-.144.192-.026.498-.205.048-.142.176-.16.129-.019.047-.143c.229-.166.606-.038.894-.189l.24-.17 1.095-.149.145.115.192-.026.139.05.403.08.652-.02.137.05.156.182.127-.017.211.107.394.015.137.048.155.184.128-.017.228.241.128-.017.446.416.21.107.098.259.137.05.155.183.387-.054.201.042.154.182.129-.018.138.05.136.049c.33.17.357-.046.446.417-.113.136-.108.28.051.4.088.075.459.17.484.21l.026.199c-.144.126-.029.076-.104.218l-.176.16.085.67.011.612-.038.21.12.938c-.109.078-.09.107-.24.168zm8.782-6.297c.012.304-.161.437-.08.7l.067-.007c.06.173.1.647.056.76l-.187.152-.052.213-.066.004-.04.35-.126.081.01.137-.066.005-.035.418-.126.08.03.413-.066.006.018.207-.069.006.026.345c-.04.083-.258.106-.32.163-.09.085-.115.36-.162.498l-.066.006c-.116.443.302.561.206.953l-.067.005.01.139-.067.006-.037.35-.067.005c-.149.367-.175.346-.075.767.21.024.302.088.54.096l-.006-.07.265-.022-.005-.068.26-.091-.006-.068.198-.017-.005-.069.133-.01.056-.145.132-.01-.004-.068.13-.01-.004-.07.132-.01-.005-.07.133-.012-.005-.068.132-.01.123-.149.13-.012.057-.142.26-.09.055-.144.387-.17.056-.143.258-.09.24-.367.132-.011-.005-.068.194-.084.055-.144.132-.012.178-.292.58-.254.05-.212.188-.154-.009-.138.29-.579.263-.022.006.07c.087.04.43-.085.458-.107l.116-.216.067-.006-.011-.138.066-.005.117-.218.132-.011.057-.143.198-.017-.005-.068.55.232.006.07.197-.017.006.069.861-.07c.134.219.158.29.184.676.335-.034.518.003.74.079l.072.065-.041.349.066-.006.01.137.42.244.015.206.066-.006.035.483-.065.005.042.551-.068.006.016.207-.065.005.01.137-.066.006.022.276-.068.004.017.209-.067.005-.1.423c.3.005.387.142.433.45-.084.087-.093.133-.112.285l-.132.012c.041.22.262.328.179.608l-.126.082-.051.21.065-.006c.105.142.169.126.407.107l.007.068c.099.05.493-.088.523-.112l.056-.142.2-.016-.005-.071.202.054.042.55c.105.032.113.044.271.047.119-.17.358-.175.652-.192l.362.388-.045.28-.133.011-.05.21-.066.007.014.207-.248.228c-.041.126.083.202.083.202.038.156-.023.184-.046.28-.566.042-.38.135-.637.398.072.254.183.255.242.535-.124.078-.255.245-.377.308-.26.136-.369-.017-.514.249-.069.085-.026.005-.056.144l-.133.01-.116.22-.065.003.009.138-.066.005.032.415-.062.073-.192.086.003.069-.263.021.005.07c-.157.09-.574.338-.845.276l-.005-.068-.265.02-.005-.067-.132.01-.15-.195-.131.009-.142-.126-.011-.137-.065.006-.15-.198-.133.012-.077-.132-.406-.106-.007-.07c-.192-.146-.022-.016-.147-.194l-.066.005-.01-.137-.496-.377-.015-.206-.067.006-.01-.139-.137-.058-.022-.275-.065.005-.087-.269-.065.004-.146-1.027-.067.006-.01-.138-.066.006c-.12-.24-.178-.633-.207-.953l-.268-.047.005.068c-.22.086-.117.097-.251.228l.006.07-.397.03-.37.378c-.053.095-.028.28-.107.354l-.132.012.006.068-.262.09.007.072-.398.03.005.07-.264.022-.294.509c-.106.076-.297.037-.386.17l.01.137-.129.08.007.07-.597.048-.58.255a.666.666 0 0 1-.3.441l-.198.015-.238.367-.265.02.006.07-.856.14c-.268.022-.773.133-.932.006a.508.508 0 0 1-.43-.379c-.244-.045-.377-.24-.56-.37l-.005-.07-.133.01-.004-.069-.132.01-.078-.13-.067.005-.086-.27-.204-.053-.005-.07-.209-.12-.01-.138-.067.005-.01-.137-.138-.06-.01-.135-.066.004-.016-.207-.066.005-.01-.137-.067.004-.01-.135-.21-.123-.092-.34-.066.007.003-.833c-.023-.158-.152-.31-.108-.545l.066-.006-.03-.412.065-.007-.026-.344.067-.005-.012-.136.19-.156-.01-.138.065-.004-.069-.895.067-.005-.011-.14.188-.152-.01-.14.067-.005-.037-.48.066-.006-.015-.207.066-.006-.036-.481.065-.007-.01-.137.127-.079.014-.694.066-.006-.01-.137.127-.08-.038-.483.068-.005-.02-.275.065-.006-.011-.137.067-.006.024-.556.066-.006-.01-.139.066-.003-.016-.207.067-.006-.022-.275.067-.006-.011-.137.25-.229.146-.705.187-.154-.01-.138.37-.377.734.01-.004-.068.53-.044.004.07.409.104.004.07.133-.012.148.195.337.044.147.195c.2.172.553.43.836.485m24.989 11.392c.162.039.24.073.46.09l.012-.275c-.214-.114-.109-.116-.195-.08l-.2-.008-.077.273zm2.608-.433l.077-.273-.124-.214c-.157-.013-.17-.027-.263-.08-.142.155-.132.176-.149.408l.195.078.264.08zm-8.22-6.589l-.077.203.396.087c-.063-.13-.083-.19-.123-.28l-.196-.01zm-.249-13.13l.058.21c-.131.211-.283.326-.42.464l-.21.336c-.2.155-.252.177-.284.47.166.104.105.127.39.156.046.381.009.434-.229.681l-.14.2c-.134.114-.16.452-.222.542l-.201.06-.278.263-.006.208.396.018c.311-.207.319-.369.746-.38-.02.159-.022.176-.078.272l-.086.48-.335.053-.058-.21c-.172.026-.295.053-.533.047-.018.374.141.47.164.835l-.61.317-.013.344c.074.093.16.48.102.695 0 0-.111.06-.075.205l.188.283.19.217-.398-.019-.143.27-.086.479-.207.199-.03.688c-.332.262-.498.29-.56.664l.325.223-.075.204c-.281.381.036.499-.096.686l-.202.06-.339.192c-.099.31-.24.211-.416.395.065.217.042.251.255.288.054-.2.083-.222.277-.264.016.21.067.132-.01.207-.129.419-.412.202-.496.736.1.044.106.058.264.083.121-.138.246-.16.407-.26l.272-.126.271-.124.21-.266.268-.058.28-.333.202-.06.415-.465.335-.051.466-.05.15-.407.201-.059c.125-.173.154-.142.215-.336.185-.027.321-.093.473-.186l.27-.125.407-.189.335-.123.272-.125.27-.126.28-.333.403-.121.202-.06.539-.182.27-.125.139-.201.403-.05.204-.13.203-.128.277-.265.672-.176.205-.127.471-.187.211-.266.602-.111.271-.125.27-.127.203-.128.276-.195.342-.261.201-.06.336-.123.281-.332.335-.053.474-.256.205-.128.273-.194.204-.129.405-.12.541-.252.268-.057.206-.197.929.042s.06-.105.201-.06c.118.118.166.107.26.15.042.116.163.58.24.632l.394.088c.273.237.47.373.496.78-.438.36.017.416-.164.822-.214.21-.233.464-.293.608l-.677.315-.474.254-.14.201c-.244.154-.376.023-.483.392l-.466.05c-.149.095-.425.225-.477.321-.18.32.17.413-.353.467l-.333-.014c-.045.214-.075.286-.279.333-.157.16-.137.048-.336.122l-.201.06-.534.045-.274.263c-.283.172-.493-.016-.614.387l-1.01.3-.141.2-.201.06-.345.329-.673.177-.209.267c-.198.086-.329-.135-.462-.09l-.21.266-.4.051c-.047.214-.076.285-.28.333l-.532.044-.47.118-.27.125-.281.333-.266.057-.349.398-.462-.02-.078.202-.203.13c.022.172.05.254.046.485l-.268.056-.19-.215-.332-.016c-.154.273-.343.448-.432.81-.274.194-.194.023-.336.122l-.279.332-.201.06-.141.202-.203.06-.27.126-.269.057-.074.203-.09.547-.142.202c-.198.323-.055.52-.026.69l.782.311.532-.045.196.079 1.26.056.858.108.198.01c.093-.057.163.052.332.014l.334-.053.201-.061 1.064-.021.406-.188 1.461-.072.328.153c.346.189.622-.244.808-.307l.664.03.259.149 1.259.058.526.091.261.082c.345-.038 1.113-.014 1.258.127l-.6.04-.337.123c-.044.105-.055.111-.08.274.076.078.078.11.126.213-.191.118-.264-.012-.264-.012-.236-.066-.437.02-.6.042-.044.108-.067.16-.081.34.18.114.247.192.245.494l-.202.06-.268.058c-.014.007-.125.154-.208.198.162.245.138.118.258.218l.313.43-.076.203-.33-.015c-.124-.168-.295-.22-.586-.233l-.022.48c-.309.3-.313-.113-.665.04l-.278.333-.795-.037-.331-.015-.152.407-.866.1-.593-.097-.337.123-.735.105-.795-.036-.201.06-.269.056-1.325-.058-.264-.083-.208.266-.397-.017-.988-.183-.796-.035-.195-.08-.26-.15-.66-.099-.252-.286c-.164-.12-.452-.154-.723-.17l-.075.201-.075.205c-.154.246-1.447.615-1.885.605-.092-.235-.235-.511-.438-.643l-.26-.081-.251-.355-.253-.289-.51-.506-.123-.214-.056-.277-.12-.282-.054-.28-.123-.281-.068-1.522.027-.689-.05-.347.027-.69.08-.341.135-1.582.077-.273.075-.204.104-.893.074-.203.145-.27.1-.825.207-.197.015-.344.145-.269c.108-.146-.058-.385.026-.62l.075-.205.077-.272.15-.408.083-.41.144-.27.093-.617.143-.27.155-.545.16-.614.155-.545.074-.204.075-.204.157-.546.255-1.369.208-.197.08-.342.142-.2.039-.897.076-.273.145-.269.074-.203.075-.205.075-.203.162-.683.143-.269.02-.483.15-.408.144-.269.09-.549.077-.272.075-.204.076-.204.076-.272.144-.27.074-.203.145-.27.151-.408.142-.2.153-.546.277-.264.141-.2.283-.401.342-.261.862.04c.145.182.35.17.518.298l.314.43.394.086.52.3.055.21.126.213c.116.258.182.359.167.767-.218.193-.04.275-.157.546l-.345.33.042.554-.478.322-.16.684-.205.128-.142.202-.21.266-.076.272.05.347-.207.2-.015.412c-.158.174-.174.245-.211.266-.414.185-.483-.022-.548.39l.262.081z" fill="#005491"/><path d="M215.188 44.76l.394-.025c.045.108.067.159.084.338a.802.802 0 0 1-.322.088c-.244-.257-.291-.047-.156-.4zm-28.354.296l-.339-.185c.018.145-.06.101.073.134l.266.051zm2.367-2.274c-.032.107-.041.116-.049.279.13.067.312.299.406.178l.05-.277a.44.44 0 0 1-.208-.192l-.2.012zm4.849-.377c.183.023.345.046.596.032-.234-.247-.109-.33-.545-.308l-.051.276zm-1.676-.509l-.197.012c-.062.147-.097.127-.109.35.101.033.11.044.265.05l.041-.412zm4.053-.464l-.33-.048c-.078.185-.11.123-.107.42.104.032.11.044.265.051.072-.156.142-.214.172-.423zm.44-.37c-.073.153-.165.21-.31.295l.519-.101-.012-.207-.196.013zm-2.536.504c.154-.051.157-.05.191-.081l-.016-.272c-.163.12-.179.173-.175.353zm3.086-1.224c-.032.106-.044.116-.049.278l.202.055c.185-.098.168-.08.179-.285l-.332-.048zm5.253-3.553l.203.056-.203-.056zm-17.446 1.04c-.164.235-.19.04-.17.49l-.045.348.114-.282.197-.08c.055-.056.04-.145.117-.215l-.213-.261zm8.94-1.32l.197-.013c.1.174.121.109.155.403a1 1 0 0 1-.39.091c-.042-.102-.057-.108-.082-.269.066-.064.083-.123.12-.212zm-8.897-.188c-.156.042-.203.092-.32.157l.271.12.05-.277zm-2.27-.54l.259-.084.05-.278c-.2-.016-.128-.07-.198.012l-.11.35zm3.577.389c-.021.187-.044.358-.03.618-.234.241-.427.49-.756.526l-.195.083c.026.242.195.573.172.673l-.186.217-.243.358-.098.555-.248.22c-.118.291.174.396-.096.622l-.32.16c.098.256.596.175.798.153.157-.206.425-.231.636-.384l.449-.233.363-.503.189-.148.254-.153.26-.085.183-.218.26-.084.114-.282.577-.242.189-.148.243-.359c.083-.066.399-.204.511-.238.07-.346.306-.365.495-.58l.178-.284.12-.214.374-.364c.137-.44.28-.578.268-1.046a.877.877 0 0 1-.276-.188c-.38.018-.574.067-.842.191l-.456.097-.194.081-.192.08-.19.08-.187.218-.197.013-.584.106-.372.434-.97.268zm6.585-3.296l-.192.082.077.2c.198-.16.154-.078.186-.218.243-.069.36-.156.713-.182.098.162.262.21.348.32.083.109.007.157.147.267-.15.263-.356.302-.505.372.231.184.367.184.603.167l.011.206-.77.322.015.274c.109.034.158.05.332.045l.24-.425.2.056c.088.146.166.195.22.396l-.453.1-.117.282c-.264.178-.218.051-.318.224.127.199.161.115.277.188.195.12.047.224.41.247l.016.274c-.216-.039-.148-.093-.404-.112-.105.14-.152.069-.252.152l-.115.281-.169.49c-.262.302-.424.083-.427.575l.096.475c-.23.057-.3.09-.312.362.209.214.2.247.225.397-.136.091-.135.163-.317.224-.054.399-.272.597-.478.854l-.118.212-.183.218-.452.165-.587.105-1.131.894.079.202.26-.017c.069-.093.433-.368.641-.315.149.038.308.291.6.167l.256-.153.52-.102.177-.353.721-.047a.886.886 0 0 1 .121-.213l.246-.222c.273-.175.474.056.788-.048l.259-.086s.066.096.202.057l.454-.099.183-.215.858.013.323-.088.194-.082.385-.161.213.26.345.251.197-.012.032-.55.115-.28.049-.277.115-.282.054-.21.044-.345.117-.28.037-.482.185-.217.03-.619.115-.282.115-.282c.164-.21-.032-.45.024-.685l.107-.417.118-.282.038-.412.113-.35v-1.097c.101-.127.083-.183.117-.28l.188-.15.32-.156.115-.282c.046-.075.19-.134.25-.221.512 0 1.089.072 1.46.249l.272.12c.119.257.332.23.48.311l.27.12.616.373c.128.26.123.74.05.886l-.119.213c-.153.312.145.508.11.746l-.052.21-.314.294.098.541-.25.22c-.081.205.135.856.124.952l-.109.417-.164.559-.118.213-.041.413-.108.419-.116.28-.311.294-.12.213-.304.431c-.223.234-.356.012-.366.502l.2-.012c.08-.156.126-.3.172-.423.253.08.363.051.418.385-.05.041-.285.392-.236.495.43.38 1.158-.12 1.436-.229l.715-.114.247-.29.26-.084.257-.084.447-.235.383-.23.317-.157.189-.15.26-.084.253-.154.518-.17.254-.15.32-.16.188-.15 1.241-.145c.107.152.33.28.484.38l.464.039.279.256.194-.013c.13.157.274.253.352.39.151.307.064.538.173.673l.201.055.277.257.208.192.424.453.155.4.077.2c.081.152.295.277.48.314l.695.64.079.2.269.12.417.383.145.198.27.118.211.194.077.2-.055.208-.189.15.016.273.085.337-.04.414.278.256-.045.346-.044.345c.128.2.041.327.027.477l-.26.086c-.06.37-.303.447-.762.458l-.336-.116-.336-.115-.417-.385-.267-.051-.2-.056-.631-.644-.205-.124-.2-.055-.21-.194-.274-.189-.205-.122-.344-.253-.62-.508-.495-.517-.203-.123-.144-.197-.01-.205-.211-.191-.274-.189-.196.014-.055.208-.583.175-.659-.028.02.341-1.164.348-.32.158-.45.164-.515.171-.257.152-.322.09-.18.286c-.337.174-.555.07-.715.181l-.314.226-1.038.272c-.176.075-.427.361-.776.255l-.208-.192-.527-.036-.211-.192-.33-.047-.148-.264-.347-.32-.205-.126-.276-.186-.142-.197-.146-.197c-.215-.342-.473-.535-.57-.784l-.029-.48-.082-.268-.078-.2-.098-.542c-.114-.112-.102-.171-.148-.264a.785.785 0 0 0-.331-.048c-.15.41-.632.333-1.164.348l-.388.095c-.127-.224-.229-.369-.552-.377-.071.22-.188.35-.23.563l.666.094.012.204-.326.09-.175.353-.328.02-.303.432-.19.148-.321.09-.454.166-.243.356-1.167.28-.254.154-.512.238-.254.153-.39.093-.12.214-.389.093-.713.182-.18.286-.785.118-.252.152-.39.094-.525.033-1.312.082-.268-.118-.467-.109-.407-.179c-.206-.153-.32-.174-.602-.167-.092.174-.05.05-.189.148l-.186.219c-.11.082-.932.333-1.167.279-.254-.125-.564.047-.73-.09a.517.517 0 0 1-.27-.12l-.204-.124-.206-.124-.21-.193-.142-.197-.561-.58-.082-.268-.205-.123c-.214-.17-.367-.016-.524.033l-.331-.048.118-.214.456-.096c.064-.151.022-.071.055-.208l-.206-.126c-.219-.126-.205-.244-.22-.396l.26-.017.182-.286c.192-.29-.073-.36.3-.496l.32-.16.192-.08c.235-.166.562-.024.713-.181l-.126-1.019-.148-.266c-.183-.306-.093-1.137-.01-1.3l.12-.213c.134-.246-.056-.458-.038-.614l.051-.276.053-.21.048-.278.047-.345.112-.349.053-.208.185-.218.18-.285.042-.414.114-.282.252-.22.1-.487.19-.148c.114-.138.173-.307.305-.43.133-.167.178-.045.314-.227l.042-.413.303-.43.19-.149.39-.093.245-.289.39-.094.444-.303.18-.285.586-.105.303-.43.189-.149.514-.238.645-.178.191-.15.779-.186 1.363-.291.717-.115.664.094.336.116.208.192.21.193c.164.165.404.01.6.099l.147.265c.327.247.407.319.437.724-.107.085-.087.05-.12.213zm32.059-18.57l.067.265.144 1.258-.058.797-.062.2-.194.398-.063.266-.128.333-.061.265-.13.266-.126.532-.324.268-.063.265-.064.2-.13.199-.056.797-.064.199-.13.266-.19.4-.123 1.127-.387.4-.054 1.128-.064.2-.127.266-.129.266-.194.399-.255.864-.123.598-.064.2-.125.398-.063.398c-.064.213-.134.335-.123.665l.068.463-.194.2v.2l-.063.199.008.597c-.287.25-.514.408-.583.666.214.137.199.243.135.464l.002.265-.128.266-.065.2-.126.265-.124.598-.198.134-.056.996c.113.042.207.061.395.062.144-.162.294-.176.52-.269l.59-.071.393-.202.521-.136.523-.27 1.047-.14.261-.134.523-.07.523-.136.915-.14.196-.068.262-.134 1.047-.075.457-.069.198-.068.26-.068.59-.072.261-.066.197-.068 1.31-.078.459-.069.192-.2 1.379-.01.194.064.263-.001.393-.07c.147-.106.462.006.524.063.286.07.231.215.398.328l.592.393.073.596.134.266.068.329c.053.16.3.375.202.662l-.192.2.07.531c-.109.193-.137.217-.324.267l-.396.07-.653.07-.72.006-.326.135-1.31.075-.327.137-1.243.075-.198.067-.98.14-.196.135-.721.071c-.376.259-.43-.02-.523-.061h-.329l-.194.334-.26.003-.198.133-.916.14-.195.2-.327.002-.785.074-.261.133-.39.137c-.433.247-.795.092-1.05.206l-.258.133-.196.136-.653.139-.326.134-.262.133-.456.204-.52.467-.064.266-.062.198-.06.665c-.181.436.006.913.143 1.127l.2.395.198.131.53.592.395.065.329.13.59.063.262.13.198.063.198.066c.099.05.074-.034.196-.002l.46.129 1.377.056.263.063.523-.003.2.066 3.276.04.654-.072.263.067.264.13 1.113-.009.525.064c.354.174.98.039 1.246-.011.037-.232.067-.304.322-.333.105.183.213.267.27.528.213.04.423.213.72.127.178-.051.877-.274 1.112-.207l.2.065.456-.07c.102.105.68.301.79.26l.393-.136c.238.43.52.412 1.182.389.085.138.224.132.263.196l.003.266.063-.201c.195-.04.477-.151.589-.07.123.134.023.3.007.53.233.1.425.218.463.528l-.653.403c-.138.267-.06.28-.191.4.084.298.25.241.268.66-.253.024-.23-.052-.26-.065l-.722.005c-.208-.163-.207-.226-.462-.26l-.13.198-.195.136c-.149.138-.346.14-.654.135l-.392-.128c-.08-.174-.1-.242-.136-.263l-.262-.066c-.16-.194-.202-.293-.462-.328-.038.626-.16.752-.713.735-.282-.236-.444.22-.788.073l-.13-.198-1.048.007c-.2-.157-.214-.23-.464-.261-.037.106-.055.157-.06.332l.067.265-.393.07-.197-.066c-.118-.09-.32.076-.523.004l-.264-.131c-.245-.24-.51-.254-.79-.259.022.316.049.172.073.53l-.264.069-.004-.465c-.212-.048-.441-.238-.59-.13-.187.047-.167.124-.195.136l-.46.003c-.153-.095-.176-.028-.262.002.151.177.292.147.332.462-.391.077-.79.045-1.179.008.054-.226.134-.17.193-.4-.144-.025-.187-.042-.265-.13-.178.044-.24.128-.39.202.08.092.214.144.33.197l-.59.137-1.113.075-.72-.063c-.27.142-.45-.016-.591-.06l-.788.006-.194-.065-.46-.064-.264-.13-.723-.06-.198-.199-.328.003-.195-.064-.264-.132-.462-.062-.261-.132-.199-.13-.263-.13-.197-.064-.198-.066-.132-.198-.53-.46c-.28.002-.393.047-.587.138l-.459.135-.195.134-.196.135-.126.33-.195.202-.855-.191-.33-.132-.33-.396-.195-.063-.203-.263-.396-.396-.002-.2-.133-.263-.2-.33-.068-.332-.068-.264-.074-.661.12-.931-.006-.861.06-.664.126-.267.059-.861.126-.333.065-.2.324-.334c-.024-.126-.14-.441-.073-.66l.064-.201.063-.332.123-.598.06-.662.255-.6.127-.531.064-.2.19-.664.188-.997.128-.199.053-1.129.064-.198.13-.2.062-.332.13-.266.122-.796.126-.268.064-.264.129-.267.122-.863.129-.332.06-.597.127-.267.06-.53.061-.267.132-.264.06-.399.064-.2.064-.199.064-.2.061-.2.131-.332.06-.463.063-.2.127-.333.063-.265.064-.2.064-.199.252-.93.124-.664.128-.333.062-.397.064-.2.124-.597.064-.2.064-.199.064-.2.062-.2.194-.199-.003-.4.064-.264.126-.267.062-.465.195-.2-.002-.264.064-.2.127-.332.06-.532.062-.2.127-.53.064-.2.13-.266.063-.2.191-.398c.13-.22.31-.209.389-.269.26-.334.014-.303.325-.4.177-.172.708.023.788.061l.46.129.331.329.196.065.07.265.068.397c.185.127.17.156.33.196zm10.276 31.616l.002.265.197-.002.064-.199-.263-.064zm3.73-.426c-.067.114-.137.142-.258.2l.392.064.129-.2-.263-.064zm-21.035-.04l-.2-.067.2.067zm19.983-.55v.2l.198-.001-.001-.2-.197.002z" fill="#005491"/><path d="M251.09 38.721c-.062-.185-.088-.197-.193-.285l-.227-.145-.165-.43-.227-.144-.236-.746-.272-.335c-.27-.14-.508-.205-.864-.117-.177.277-.47.136-.763.323l-.17.11-.272.203-.415.17-.138.236-.35.155-.154.172-.566.342-.185.314-.23.125-.166.109-.154.172-.153.173-.173.377-.229.124-.153.173-.124.3-.335.217-.153.172-.154.173-.063.284c-.11.115-.123.224-.185.316l.104.173.365-.09.168-.11.153-.173.23-.124.169-.11.275-.202.411-.17.215-.187.579-.28.506-.327.214-.186.228-.125 1.021-.323.217-.187.655-.231.335-.218.2.018c.201.078.355-.052.516.005.341.258.513.396.909.31zm2.968 6.434c.096.287.213.255.316.525l-.44.042.044.191.455.02.044.19c-.161.123-.248.136-.278.202-.098.243.12.256-.23.394-.121-.09-.13-.026-.273-.065l-.395-.036-.274-.065-.27-.067-.336-.05-.255-.272-.59-.321-.242-.209-.149-.366-.179-.222-.23-.145-.191-.555-.226-.145-.119-.507-.236-.746-.166-.158c-.213-.003-.277-.062-.579.01l-.274.202-.214.188-.597.215-.321.282-.29.14-.227.123-.292.141-.184.313-.351.154-.215.188-.275.204-.153.172-.396.233-.445.313-.275.202-.35.155-.156.172-1.25.447-.395-.037-.272-.066-.486-.146-.166-.161-.212-.08-.44-.226-.105-.176-.437-.224-.21-.35-.165-.159-.287-.13-.18-.493c-.23-.218-.498-1.003-.474-1.223l.11-.361c-.145-.124-.319-.202-.302-.462l.02-.205.123-.3.153-.172.125-.298-.012-.333.276-.472.154-.172.138-.236.214-.188.11-.362.34-.487.079-.22.165-.11.08-.222.124-.297.323-.55.55-.138c-.08-.164-.115-.125-.197-.287.112-.1.086-.128.278-.201.169.118.134.058.318-.014.013-.13-.01-.408.006-.538.127-.098.244-.182.381-.296l.229-.124.323-.55.596-.216c.04-.153.009-.071.017-.206a.81.81 0 0 0 .321-.281l.382-.297.263-.267.321-.28.228-.125.215-.187.23-.125.776-.26.475-.186 1.201-.1.392.305.304-.076.198.018.199.018.319-.013.271.065.467.352.351.115.391.304.168.161.044.19.165.159.195.286.168.161.12.238.164.16.355.984c.105.194.488 1.45.472 1.76l-.05.616-.169.11c-.21.285-.515.187-.626.356l.012.333.209.35.228.143.317.257.116.507.19.825.134.57-.017.206.157.696.137.303.105.175.314.524c.104.167.205.22.299.462.013.224.024.186-.061.284l-.278.203z" fill="#005491"/><path d="M264.623 32.703l-.126.002c-.073.138-.14.14-.185.326h-.064l.004.393c-.131.02-.124.066-.124.066l-.815.007v.065h-.124l-.248.33h-.063c-.058.118.003.335-.058.457h-.063l.002.13-.126.067-.059.262h-.064l-.059.457h-.064l.002.196h-.06l.001.196h-.063l.001.197h-.063l.006.652h-.062l.003.261h-.063v.13l-.063.001-.05 1.175h-.065l-.06.262-.123.066v.13h-.065c-.095.112-.049.105-.247.133-.074-.073 0-.027-.128-.063l.001.129.254-.002c.118.204.231.184.255.52-.142.175.018.524-.057.782l-.063.001c-.04.116-.165.702-.118.849l.062-.001.066.39h-.063l-.055.784h.063l.07 1.042-.186.132.002.13h-.062l.065.393.063-.001-.051 1.565-.124.067.008.846h-.063v.13l-.123.067.002.13-.066.001.002.196h-.061l.001.196h-.061l.001.13h-.063v.132l-.185.132.001.13-.064.001.07.587h-.065l-.06.392-.749.333c-.034.194-.115.3-.184.457l-.625.135v-.065l-.315-.062-.752.007-.062-.13-.126.001-.001-.066-.124.002-.128-.129-.127.001-.062-.13-.188.001v-.064l-.25-.063-.001-.064-.376-.064-.064-.129-.252-.063-.064-.13-.124.001v-.064l-.38-.128-.001-.13-.883-.775v-.13l-.19-.129v-.13l-.192-.128v-.131h-.063l-.067-.651-.379-.127c-.025-.165-.087-.268-.003-.457h.063c.035-.065.115-.25.06-.392l-.128-.064c-.121-.256-.047-.663-.007-.913.096-.038.102-.05.25-.067.084.154.19.275.377.322v-.064c.174-.193.016-.363.122-.588l.372-.329.628-.072c.027-.156.068-.205.121-.326l.127-.002c.064.132.185.265.252.39l.001.13.126.064.004.456c.107.338.362.82.697.906v.066l.627.127.001.063.313-.067c.043-.233.188-.334.247-.526l-.006-.717h.063l.062-.26.063-.002-.006-.651.061-.001-.006-.782h.063l-.002-.196h.061l-.065-.456.062-.001-.002-.197h.063c.1-.342-.037-1.02.052-1.369l-.003-.39h-.063l-.004-.391h.063l-.006-.523h.063l-.001-.13.063-.001-.008-.913h.064l-.003-.261h.063v-.13l.06-.001v-.197h.062l-.006-.716.124-.068c.079-.2-.064-.38-.065-.52-.002-.12.094-.43.12-.523l-.007-.847.063-.001-.002-.195.06-.001.062-.261h.063v-.13l.063-.002-.002-.197.06.001v-.131l.063-.001.057-.456.126-.067.057-.782.06-.001.062-.26h.061l.062-.459.186-.132-.001-.13c.009-.012.086-.075.123-.13l.063-.002-.002-.261h.063l.058-.262.253-.198-.002-.13h.062l-.002-.13.063-.001a.227.227 0 0 1 .063-.066v-.065l.75-.007v-.065l.187-.002v-.065c.167-.09.513-.226.813-.137v.065l.38-.004v.065l.249.063v.066l.314.061.507.648.066.326h.064l.001.13.063-.001.002.196h.06l.001.13.064-.002c.12.157.22.195.254.455-.304.302.175.447.008.848h-.063c-.068.109-.086.11-.123.262m2.041 9.701l.186.071.128-.127.007-.261-.188-.005c-.07.135-.104.111-.133.322m5.676-11.323c.277.085.312.295.424.533l-.004.13.187.136-.007.13.12.264.04.914-.066.13-.126.06c-.097.22.095.468.113.59l-.07.194-.378.12-.692-.018-.252.123-.252.058-.381.186-.126.062-.069.194-.193.19-.124-.003-.193.19-.006.13-.062.13-.068.193-.257.187-.004.131-.064.13-.069.194-.384.316-.003.13-.07.324-.131.256-.074.455-.257.189-.017.717-.256.188c-.125.267.145.45.109.656l-.07.324-.067.195-.07.258-.067.128-.08.78c-.018.659-.123 1.539.01 2.088l-.028 1.109.052.393-.088.975.116.395-.017.716.056.263-.069.194-.066.193-.089 1.106c.003.015.082.024.057.133-.102.128-.09.158-.13.257l-.445.184-.004.13-.066.194c-.151.155-.046.081-.192.19l-1.13.035-.186-.071-.06-.132-.126-.005-.121-.132-.127-.004-.057-.132-.127-.003-.185-.071-.366-.465-.123-.004-.122-.198-.249-.074-.302-.464-.186-.006-.126-.067-.118-.2-.12-.265-.247-.202-.115-.393-.124-.07-.055-.327-.057-.198-.06-.131-.058-.197-.047-.59-.177-.395c.166-.087.11-.113.378-.118.096.164.26.245.495.272.146-.177.171-.033.196-.385-.162-.102-.224-.21-.238-.464.21-.076.576-.053.879-.04.15.301.428.507.742.476.022-.136.064-.13.064-.13l.011-.39.016-.652.073-.453-.057-.198c-.146-.305-.027-1.225.037-1.434l-.03-1.37.068-.195.069-.193.067-.195.153-1.168.067-.194.067-.128.14-.584.066-.194c.1-.159-.067-.465.018-.717l.138-.388.131-.256.082-.782.067-.194.066-.192.069-.196.126-.061.005-.13.067-.194.066-.194.067-.128.067-.129.19-.124.005-.133.126-.061.003-.13.132-.256.066-.194.067-.13c.137-.097.152-.11.195-.255l.124.003.517-.638.192-.126.003-.13c.16-.185-.001-.124.195-.255.09-.09.355-.156.507-.182.125-.477.7-.584 1.33-.55l.315-.056c.432-.125.786.038 1.187.096.098.187.248.23.304.466m10.224 14.731l.014.193-.558.112c.139-.236.359-.285.544-.305zm2.199-.834l.31-.027c.044.194.081.115.017.196l-.306.09c-.078-.195-.064-.058-.021-.26zm-4.065.266l-.04.33.315-.025c.026-.108.042-.16.036-.33l-.311.025zm8.485-.825l.076.19-.076-.19zm-1.333-1.851c.057.174.03.143.2.179-.06-.175-.026-.145-.2-.18zm-4.905-.843l.186-.016-.176.146-.01-.13zm-.37-2.39l.02.261.25-.02.046-.2-.316-.04zm-2.277-4.326c-.023.28.014.313.05.65l-.914.402-.177.146-.427.165-.385-.1c-.102.358-.117.644-.374.88l-.547.243-.048.199c-.234.065-.196.06-.435.036-.18-.187-.141-.337-.217-.374l-.752.06c.04.195.056.207.15.317l.288.498.385.1c-.07.536-.546.547-.532 1.222.161.073.227.11.506.087.08-.146.265-.227.42-.294l.248-.021.24-.15.366-.163 1.051-.215.242-.152c.331-.22.629-.013.88-.006.025-.112.05-.21.031-.394l.167-.275.05-.201c.243-.132.454-.095.615-.18l.427-.166.23-.28.246-.086.108-.206.179-.145.306-.09.182-.08.225-.346c.072-.074.152-.017.246-.086l.168-.276.246-.085.224-.345c.137-.153.236-.157.35-.355l.048-.201c-.29-.128-.453-.099-.886-.059l-.998.082-.304.156c-.263.162-.373-.051-.572-.085-.048.123-.076.109-.104.271-.141.052-.146.07-.24.151-.155.169-.284.112-.432.1l-.021-.26c.107-.067.282-.185.356-.29-.499-.193-.433.056-.865.2zm5.579-3.53l.41.424.875.779.153.38.084.254.14.185c.148.208-.01.38-.024.526l.12.71-.046.265-.042.264-.007.72a.809.809 0 0 1-.31.092l-.253-.045-.034.394c.165.081.191.119.219.376-.152.093-.311.148-.486.235.067.136.16.503.05.65l-.182.081c-.153.231-.244.262-.42.295l-.02-.26c.144-.07.221-.079.298-.221l-.259-.11-.11.207-.37.096c-.204.234-.196.18-.227.345-.1.106-.104.185-.095.401.19-.042.196-.06.303-.156.097-.142.256-.147.427-.166l-.03.395-.685.12-.182.08-.224.346-.19.016-.238.151c-.059.227-.01.106.014.195l.02.26-.374.031c-.095-.15-.209-.261-.401-.296-.1.148-.245.208-.486.236-.007.263-.054.191.02.26.122.157.206.109.392.165-.115.211-.094.243-.293.284-.07-.11-.095-.093-.145-.249-.207-.034-.142-.086-.385-.099l-.024.525c-.272.021-.565.024-.676.187l-.111.205-.486.235-.11.206c-.22.128-.465-.073-.57-.084-.395.16-.73.11-.93.206l.085.256c.312.03.792.185 1.195.032.1-.038.42-.164.62-.116l.386.1c-.007.252-.061.248-.227.344l.185-.08.565.019.319.04.364-.161c.092.09.316.153.447.094l.24-.15.181-.08c.259-.174.493-.018.631.013.332.08.981-.161 1.239-.233.003-.154.017-.161.044-.264.174.062.34.146.633.08l.314-.027.38.035c.182-.132.3-.048.436-.036a1 1 0 0 1 .092.385l.254.045c.153-.143.308-.18.42-.296l.11-.206.312-.026c.049.04.723.177.828.13l.177-.146c-.052.171-.218.268-.158.405.249.165.723.08 1.074.043.078.13.108.107.148.316-.242.165-.236.374-.19.802l.258.108c.041.231.031.283.034.455-.184.122-.102.132-.425.166-.16-.13-.623.039-.876.072-.031.181-.008.147-.172.21l-.609.245-.435.101-.182.082c-.259.2-.421.139-.494.105l-.76-.07c-.151.249-.045.26-.043.266.052.196-.09.183-.235.215-.095-.202-.133-.349-.403-.36-.095.098-.382.041-.625.053-.109.25-.225.35-.602.375-.044-.175-.087-.331-.108-.58l-.364.16-.428.167-.37.095c-.166.318.17.343-.142.601l-.183.08c-.159.055-.514-.215-.765-.134l-.306.091-.182.08c-.147.128-.412.03-.438.036l-.427.166-.26-.11c-.176-.107-.458.1-.49.172l-.037.33c-.436-.272-.563-.56-.988-.574l.238.635c-.151.1-.21.147-.49.17-.14.153-1.18.106-1.5.124-.283.014-.43-.088-.641-.145l-.248.02-.26-.108-.381-.035-.2-.18-.32-.04-.2-.18-.386-.098-.14-.186-.393-.228-.385-.1c-.125.173-.218.13-.423.231l-.245.086-.24.15-.111.205-.245.086-.368.093c-.181.176-.204.203-.485.238-.228-.295-.502-.032-.77-.198l-.077-.19-.203-.18-.26-.11-.207-.244-.083-.254-.21-.31-.09-.323c-.122-.328-.132-.915-.164-1.358.126-.089.291-.272.346-.42l-.016-.197.109-.204.184-.081.36-.225.245-.085.308-.09.478-.302c.045-.146.16-.282.088-.528l-.027-.326c.18-.386-.02-.785-.005-.917l.047-.199.106-.27.047-.2.07-.725.107-.27.049-.201.107-.205.097-.4.236-.215.042-.265.047-.2.106-.27.11-.207.183-.079.235-.216.177-.147c.059-.29.134-.182.287-.348l.111-.207.46-.56.308-.09.178-.146.3-.155.227-.345.364-.161.18-.146.166-.275.188-.015.173-.21.426-.167.11-.204.31-.091.609-.246.109-.206.558-.11.623-.051s.07.103.193.05l.285-.416.246-.087.174-.145.184-.08.178-.145.614-.18.452.159.245-.086.182-.082.81-.13.243-.086.193.05.707.203.388.165.459.224c.104.134.121.147.264.175zm9.45 9.911l.169.066-.002.059.112.006v.06c.19.106.062-.077.223.129l.056.002.099.36.167.128-.006.12.111.063-.006.18c.13.378.204.707.178 1.255-.15.091-.293.35-.367.52l-.007.177-.056-.002-.008.177-.296.224-.003.06-.287.047c-.08.057-.009.146-.066.235l-.056-.003-.064.116-.113-.005-.005.06c-.452-.017-.6-.216-.898-.34-.138-.056-.295.008-.397-.077l-.05-.18-.111-.064-.161-.246-.396-.137c-.12-.097-.087-.278-.153-.422l-.056-.004.003-.118-.11-.064.003-.12-.055-.004.017-.414-.056-.002-.046-.36.059.003.008-.177.058.002.031-.77h.057l.01-.237.056.003c.072-.262.252-.368.422-.516l.062-.116.344-.044.002-.058.115.005.002-.06.23.01.002-.06.342.016.001-.06.228.012.004-.061.057.003-.002.059c.066.02.596.415.61.446l-.005.117zm40.461 1.701c-.058.152-.164.296-.08.405.182-.132.209-.074.198-.356l-.118-.049zm-4.317-.324l-.037.204.176.04.094-.21-.233-.034zm.647-.417l.357.148.038-.203c-.252.012-.169-.017-.395.055zm7.954.149l-.026-.26c.1-.06.215-.093.389-.12l-.018-.193a.584.584 0 0 0-.295-.091l-.086-.317.158-.153.163-.088.039-.201c.1-.186.276-.233.546-.275.092.16.11.098.148.374-.145.125-.122.198-.378.25l-.23-.034c.076.11.088.217.136.244l.171-.023c.26.27.275.085.33.48l-.327.176-.23-.034c-.134.2-.122.257-.372.314l-.118-.05zm-3.477-1.752l.733-.102c.05.116.08.245.1.446-.121.071-.304.111-.503.136-.087-.104-.358.028-.393.053l-.496.2c-.075-.126-.104-.102-.143-.308l.376-.25.332-.112-.006-.063zm-15.757-6.033l-.018-.193-.161.088c.133.122.064.082.18.105zm6.835 1.618l.17-.022c.102-.2.128-.356.112-.608-.113-.067-.099-.054-.136-.244.088-.087.073-.053.095-.211.186-.185.173-.064.27-.167l.146-.285.087-.274.094-.21.158-.153.094-.21.12-.542.038-.202c.125-.227.135-.365.11-.673-.279-.12-.612-.05-1.027.011-.1-.104-.567-.203-.807-.085l-.388.12-.164.089-.446.125-.212.162-.439.193-.215.16c-.16.16-.36.023-.449.061l-.215.162-.094.21-.158.153-.822.376-.212.161-.148.282-.274.105-.2.29-.038.203-.164.088-.096.208-.008.53-.206.225-.008.526-.313.306.116.64-.302.436.055.584c-.01.352.078.495.117.64.1.028.18.037.342.02.081-.128.098-.079.215-.163l.276-.103.15-.219c.114-.098.243-.03.39-.12l.212-.16.495-.2.322-.241.319-.241.222-.096.212-.16.327-.178.15-.216.22-.096.546-.274.158-.152.263-.234.094-.21.207-.225.22-.097c.145-.27.224-.33.42-.385.05.264-.002.357-.001.59zm-2.488-3.4c.311-.022.497-.004.789-.109l.033-.268-.74.038c-.048.144-.079.127-.082.339zm-3.132-1.734c-.166.06-.248.157-.377.25l.231.032.146-.282zm8.397-1.818c.056.167.112.192.2.301l.074.186.37.278.08.252.18.106.018.193.132.18.143.31.074.186.081.252c.023.043.272.316.318.349-.041.166-.237.54-.159.744.06.157.327.316.287.619l-.11.671-.157.154.01.719c-.054.176-.437.294-.476.395l.043.454-.2.291-.478.394c.103.256.088.508.054.582l-.214.162-.24.492-.156.155-.22.096-.27.168-.201.29.023.26-.205.225-.096.211c-.155.216-.406.028-.61.214l-.143.284-.327.176-.158.154-.156.151-.22.097-.212.161-.095.21-.276.103-.024-.258c-.124-.054-.11-.092-.294-.092l-.084.34.402.01c-.239.373-.206.115-.384.186l-.27.169-.03.265s.108.063.073.188l-.15.217-.281.04-.132-.178c-.198-.072-.353.154-.44.191l-.513.006c-.163.473-.4.673-.89.845l.023.26.237.099.401.01.626-.023.181.108.513-.006c.427-.057 1.048-.065 1.298-.179l.452-.063c.284.15.48-.037.564-.077.514-.254.694.3 1.095.11l.22-.097.214-.159.38-.185.323-.242.612-.149c.158.09.365-.01.452-.063l.337-.047.735-.1.174.042c.048.087.24.189.302.154.11-.12.35-.402.42-.387.383.13.214.324.39.538l.078-.406.094-.209.367-.38c.281.024.41.073.8.021.105.166.15.098.207.366-.131.089-.175.098-.202.29.148.07.49.113.687.037l.288.025.018.195.509-.07.094-.21.677-.095c.176-.297.262-.35.533-.4l.087.314c.155.077.394.018.57-.012.1-.166.14-.06.268-.169.134-.238.215-.27.372-.313.154.166.271.148.33.481l-.26.889-.382.184-.164.087-.163.09-.388.119-.039.202c-.062.105-.183.137-.326.175l-.192-.235-.158.153c-.037.074-.021.291-.082.34l-.735.1-.274.106-.076-.188c-.153.098-.476.3-.776.24l-.174-.042-.171.024-.268.168-.27.17-.452.06-.27.17-.356-.147c-.08.232-.173.35-.477.393l-.133-.177c-.133-.193-.228-.162-.355-.148-.122.201-.312.18-.482.33l-.27.166-.327.177-.563.078c-.068.478-.394.258-.76.433l-.332.113c-.17.285-.039.417-.407.516-.26-.335-.093-.42-.387-.473l-.288-.026a4.464 4.464 0 0 1-.13.477c-.108-.036-.435-.186-.63-.042l-.144.281-.56.143.024.26-.714.295-.289-.026-.174-.04-.352-.083-.4-.011-.407-.075-.073.405-.44-.4-.169.024.087.316-.283.039-.08-.25-.502.134-.181-.107-.13-.178-.459-.003-.311-.285-.35-.083-.133-.179-.136-.244-.306-.221-.3-.155-.38-.407-.47-.132-.4-.011-.239-.098-.462-.066-.18-.108-.32-.35-.181-.107-.192-.234-.082-.252-.136-.244-.207-.366-.121-1.297.373-.313.023-.333c.098-.225.265.024.24-.492-.117-.06-.288-.754-.26-.95l-.026-.914.089-.868-.016-.784.15-.219.007-.527.36-.443.078-.996c.12-.081.15-.13.327-.176l.196-.947c.13-.149.138-.178.135-.412-.085-.066-.099-.107-.138-.243.146-.142.099-.287.183-.487l.146-.283.38-.183.398-.647.276-.104.194-.355.326-.176.097-.21.212-.16.22-.097.15-.218.22-.096.162-.088.215-.161.495-.2.163-.09c.165-.186.28-.226.545-.271l.082.252.22-.096 1.452-.332.153-.218.444-.127.27-.17 1.12-.22.642.108.174.042c.155.076.27-.161.444-.127l.24.1.13.178.369.277.286.026c.12.14.152.193.306.22z" fill="#005491"/><path d="M303.07 45.963l-.026-.257c.191-.128.278-.263.56-.33.045.097.069.145.092.312a1.38 1.38 0 0 0-.268.293l-.359-.018zm8.122-6.093l.027.257c.266-.01.177.02.413-.05l-.026-.258c-.232-.01-.165-.003-.414.051zm-.306-.09c-.013-.184-.016-.277.018-.392l-.181-.042c-.08.194-.186.2-.19.478.094.026.103.037.242.036l.11-.08zm.422-2.262l.025.259a.89.89 0 0 0 .362.018l.02-.392c-.197.026-.264.067-.407.115zm-10.019 1.529c-.173.137-.285.23-.387.308.133.47.063.535-.148.862l-.073.464c-.201.355-.137.921-.104 1.312.304.131.443.268.916.208l.17-.086 1.222-.285.168-.086.221-.158.288-.102.17-.086.743-.287.224-.158.338-.173.155-.215.23-.094.281-.166.097-.206.229-.095.51-.26.22-.156.346-.11.17-.086.575-.786.163-.15.339-.173.345-.109.164-.15.195.17c-.02-.365.068-.312.247-.486l.1-.208.233-.03c.17-.25.108-.424.425-.508a.803.803 0 0 1 .091.314c-.072.084-.079.128-.09.27l-.352.046-.19.478.295-.037c.169-.225.227-.235.254-.421.182-.039.27-.104.396-.181l.015-.456.156-.215-.02-.192.038-.2.157-.214.229-.094.163-.151.28-.165.091-.271c.172-.169.19-.277.262-.358l-.033-.321c-.127-.098-.062-.12-.145-.242l-.458-.396-.189-.106-.175.023-.247-.098-.484-.07-.183-.043-1.07.009-1.527.191-.23.096-.17.085-.868.238-.62.34-.221.158-.17.086-.222.158-.224.158-.28.165-.22.157-.171.087-.221.158-.288.101-.143.343c-.12.162-.292.237-.436.38l-.256.421-.228.094-.092.271-.162.152-.214.22-.257.423-.148.279-.04.2c-.12.143-.114-.056-.155.215zm4.501-4.855c.06.17.03.142.196.17-.062-.172-.031-.141-.196-.17zm13.856-4.74c-.112-.154-.159-.167-.312-.154l.018.192.294-.037zm.345-.693l-.026-.256-.177.022-.03.265.233-.031zm.71-2.946l.177-.022c.052-.146.016-.067.038-.2-.113-.047-.101-.076-.25-.098-.005.165.004.17.034.32zm-.338 2.51c-.017.338-.072.687-.202.934l-.325.302.008.648c-.147.099-.208.122-.224.157-.125.42.078.414-.239.55-.193.192-.193-.102-.362-.02l-.02.393c.045.03.177.13.146.241-.078.181-.132.227-.202.35l-.136.407-.21.287-.266.292-.212-.297-.592.01-.168.086-.166.15c.138.174.618.174.73.169l-.009.455-.163.15.038.385c-.162.17-.336.124-.452.252l-.2.351-.1.207-.097.207-.163.15-.092.271-.292.038-.112-.506c-.094-.025-.101-.037-.241-.034-.13.208-.262.184-.24.55.188.08.304.174.344.476-.262.09-.367.076-.644.081l-.106.728-.209.285-.117.6.026.257-.155.213.124.634-.262.358c-.06.205.212.627.255.745v.585l.179 1.148.117.567.14.18.161.433c.124.244.339.193.511.324l.333.347.189.107.333.347.092.314.079.183.189.108c.115.15.143.308.178.562l-.232.094-.356.564-.287.102-.17.085-.222.158c-.005.066-.138.023-.237.029l-.09-.312c-.598.087-.857-.051-1.32-.093l-.516-.388-.09-.314-.19-.106-.23-.492-.083-.247-.138-.177-.254-.163-.107-.441-.143-.244-.158-.367-.226-.492-.125-.633-.143-.242c-.13-.15-.038-.299-.04-.384l-.092-.312-.262-.227-.652.018c-.174-.138-.377-.238-.438-.204l-.162.148.096.379-.155.216-.22.156c-.097.375-.143.412-.492.45l-.033-.319c-.181-.004-.117-.058-.175.022-.14.259.262.279-.132.471l-.344.108-.164.151-.23.094-.234.029c-.023.103-.035.111-.033.264.044.033.174.13.144.241-.157.174-.31.233-.567.268l-.046-.45-.234.03c-.022.686-.185.831-.92.897l.017.192c-.225.268-.404.053-.63.21l-.158.214-.254.422-.039.199-.765.097c-.131.301-.44.202-.81.233.16.139.206.178.321.219l.02.192-.353.044-.143-.241-.588.074-.366-.082c-.078.126-.104.072-.221.157l-.17.086-.155.214.017.193c-.084.24-.201.222-.509.258-.176-.132-.403.003-.658-.047-.182-.099-.291-.008-.425-.075l-.313-.155-.718-.04-.196-.17-.3-.025-.203-.236-.085-.247c-.068-.104-.465-.168-.613-.184l-.158-.367-.19-.108-.136-.178-.086-.25-.084-.246-.196-.17-.092-.313-.138-.178-.17-1.083-.169-.497c.166-.129.258-.246.24-.55-.363-.191-.15-.686-.04-.968l.15-.28-.04-.384c.166-.205.322-.235.366-.501-.106-.093-.155-.345-.178-.562.19-.168.18-.388.293-.62l.162-.152-.025-.256c.08-.27.217-.29.562-.33l-.117-.57.346-.11c.12-.117.134-.135.217-.22l.205-.288.532-.65.264-.294.091-.271.217-.222c.262-.277.151-.098.267-.293l.038-.2.478-.58c.141-.17.34-.082.455-.187l.255-.422.529-.068.17-.086.288-.102.09-.269.157-.216c.363-.225.868-.12 1.037-.326.162-.242-.113-.202.201-.35l.347-.108.345-.109.224-.158.705-.09.346-.108c.065-.08.155.028.292-.037l.17-.087.341-.172 1.468-.187.306.092.42.012.18.042.726.103.196.17.358.019.191.107.268.29.188.106c.292.065.484.185.629.31.354.307.646.736 1.262.685.018-.347-.035-.712.088-.856l.268-.294.091-.27.04-.2.04-.2.09-.271c.196-.33.07-.53-.015-.713.169-.228.426-.305.542-.523l.012-.455.02-.393.222-.158c.134-.14.21-.432.229-.677l.267-.294c.177-.36-.24-.524.353-.629l.025-.327c.303-.173.334-.215.354-.63l.226-.094.1-.206.136-.407.273-.23.09-.27.321-.366.306-.493.028-.328.272-.23-.018-.192.03-.263.092-.273.208-.285.178-.022.169-.087.208-.286.17-.086c.187-.318.234-.41.547-.458.173.167.298.05.491.133l.189.104.267.29.138.179.386.275c.254.075.264.383.351.54l.197.171c.094.088.163.216.269.29l.11 1.09-.038.199-.092.27-.09.273.001.584-.315.429.074.705-.266.294-.166.15.041.385-.007.52-.092.271-.026.328c-.155.138-.195.185-.332.238zM92.164 38.288c.008.314.067.247.154.485l.057.003c.055.226-.164.235-.185.29-.03.08.04-.02.055.065l-.073.355.057.002.047.301-.176.052c-.235.188-.657-.015-.981.076l-.002.06-.173-.008-.002.059-.288-.013-.002.06-.686-.09-.003.059-.233.05-.001.058-.575-.026-.002.06-.115-.007-.062.117-.402-.016-.003.06-.116-.005-.001.059-.116-.005-.062.116-.921.018-.063.117-.172-.008-.003.06-.864.02v.059l-.235.051-.002.06-.402-.018-.003.059-.23-.01v.06l-.173-.01-.003.06-.462.04-.003.059-.114-.003-.003.058-.23-.01-.002.06-.634.03-.003.06-.29.045-.001.062-.234.048-.001.06-.347.044-.002.06-.233.05-.003.059-1.094.01v.06l-.231-.01-.003.06-.172-.01-.003.061-.23-.012-.002.061-.574-.026-.002.06-.233.05-.002.058-.23-.011-.003.06-.23-.01-.002.06-.23-.01-.002.059-.343-.074.004-.06c-.205-.08-.36.07-.465.098l-.687-.092.003-.059-.115-.004.003-.06-.679-.27-.215-.372-.115-.004.003-.06-.168-.126.005-.121-.113-.064.006-.12-.057-.003-.046-.3c-.148-.278-.346-.356-.37-.795l.058.002.07-.296.178-.112.004-.12.237-.168c.206-.183.387.01.637-.09l.063-.117.172.009.002-.061.402.019c.107-.03.26-.18.465-.1l-.002.06c.07.034.279.115.398.08l.003-.062.232-.048.003-.06.861.04.003-.06.23.01.002-.06.115.006.003-.06.287.012.002-.06.574.026.003-.06.114.006.063-.116.632.028.002-.06.172.008.003-.059.173.007.002-.06.23.011v-.06l.461.02.003-.059.115.005.062-.116.632.03.003-.061.23.012.001-.062.232-.05.003-.058 1.093-.01.003-.06.115.005.003-.06.171.008.004-.061.63.03.003-.06c.127-.024.17.068.17.068l.746.034-.002.06.059.002.001-.059.173.008.002-.06.517.023.003-.06.115.007.002-.062c.27-.082.594.08.742.154l-.003.061.75-.025.052.12.114.005-.003.062.29-.047.003-.061.402.019.003-.059c.127-.025.168.066.169.066l.632.031.216.308c.094.04.108-.054.118-.055.247-.043.519.05.686.09M6.625 46.062l.168.005-.052-.187c-.122.128-.08.06-.116.182zm-.19-1.245c-.023.203.058.183.219.191l.004-.186-.223-.005zm1.56.1l.007-.186-.17.059c.116.136.054.089.164.128zm2.041-3.236c-.064.128-.092.108-.12.307.168.032.104.073.169.005l.118-.245-.167-.067zm-5.518 1.721l.498.138c.1-.125.132-.05.228-.12l.4-.424.693-.788.174-.243.116-.185.063-.245.63-.605.176-.307.225-.056c.276-.2.236-.682.635-.789l.061-.186-.1-.437.286-.24.005-.186.116-.183.115-.183.172-.119.171-.121.116-.182.225-.057c.248-.361.088-.85.197-1.112l.18-.43.172-.181.065-.37.226-.12.062-.184.286-.241.062-.248.064-.308.17-.119.126-.493c.219-.218.264-.074.292-.49l.167.005c.061.135.02.063.051.187l.17-.058.172-.18.335.008c.075.157.109.181.33.194.11-.177.47-.348.735-.353.092.18.254.362.435.445l.223.005.162.191.164.19.216.254-.006.186.044.498.05.187c.108.205.026.87-.026.991l-.178.369c-.115.083-.159.104-.173.244l.037.683-.118.244.042.56-.23.242.04.56-.12.37c-.102.152-.01.408-.013.433l-.062.248-.06.184.096.562-.118.244c-.207.21-.221.304-.238.553a.74.74 0 0 1 .218.19l.337-.053.39.072c.134-.213.271-.154.347-.487.24-.036.563-.165.679-.354.148-.16.042-.273.126-.495l.176-.367c.154-.037.13-.078.283-.116.063-.255.227-.309.293-.553l.17-.057c.136.193.017.213.273.257.08-.161.101-.103.121-.372-.048-.037-.15-.059-.106-.187l.116-.183.28-.054c.053-.204.182-.29.291-.427l.172-.184.173-.18.17-.12.23-.242c.104-.186.232-.23.288-.304.207.042.126.04.335.01l.06-.187-.045-.372.516-.484 1.003.027.222.068c.203.119.549-.221.781.019.217.067.165.145.272.317l.218.191.276.132c.083.059.188.363.21.501l.165.067.052.187.047.311.047.31.104.316.028 1.054.049.25.047.374.042.498-.019.682-.012.495.164.128c.09.202-.04.369-.014.497l.163.19.046.373.051.188.042.497.158.376.155.502.16.252.165.126.101.376.273.255.101.375.165.128.05.249.38.382c.019.074-.094.262-.12.308l-.064.308-.339.116-.566.296c-.199.122-.409-.067-.5-.074l-.17.057c-.052.229-.145.299-.399.3l-.448.051c-.238-.146-.182-.262-.325-.381l-.166-.066-.107-.188-.22-.07-.107-.187-.435-.447-.324-.442-.215-.314-.107-.19-.106-.19.007-.248-.106-.25-.218-.19-.046-.376-.105-.25-.1-.437-.105-.25-.038-.685-.05-.188-.104-.374-.042-.435c-.151-.23-.148-.294-.44-.322-.1.378-.425.302-.736.416-.004.237-.037.388-.071.556l-.396.175-.17.122-.117.183-.334-.01-.237.49c-.115.113-.334.082-.452.176-.092.074-.11.323-.178.43l-.17.12-.29.363-.896.103-.068.431-.227.12-.17.12-.284.178-.172.12-.281.118-.282.116-1.007.037c-.18.01-.324.094-.503-.015l-.162-.19-.163-.128-.598-.636-.22-.191-.099-.437-.328-.32-.045-.371-.15-.687-.051-.187-.094-.623.005-.187-.103-.375-.28.055-.06.185.046.375-.288.239-.008.373-.235.428-.287.303c-.07.051-.234.042-.282.117l-.065.309-.284.177-.005.187c-.213.288-.068.24-.287.303l-.283.118a1.175 1.175 0 0 1-.293.55l-.179.369-.229.241-.395.177c-.186.144 0 .391-.348.487-.108.407-.498.37-.742.601l-.29.365-.224.056-.172.12-.283.18c-.305.166-.364-.183-.668-.081-.136.122-.393.268-.62.17l-.329-.194-.165-.065-.216-.317-.164-.128-.328-.256-.051-.188-.327-.318-.161-.253-.047-.311-.218-.192-.107-.189-.045-.434L1 45.484l-.04-.623.036-1.299.06-.187.06-.183.149-1.363.172-.18.128-.619.122-.368.118-.244.061-.185.123-.433.192-.927.177-.366.119-.245.236-.49.069-.495.173-.18.063-.31.062-.247.062-.184.066-.371.118-.245.121-.37.116-.183.13-.617.178-.43c.19-.273.169-.448.238-.614l.121-.307.068-.433.172-.182.076-.742.06-.185.061-.184.063-.247.117-.245.071-.556.017-.62.063-.247c.235-.363.182-.533.462-.609.295-.353.483.23.891.085l.227-.119.613.015.388.198.762.701.05.25c.186.212.361.997.244 1.31l-.173.18-.006.249-.06.184-.187.678-.115.183-.181.493-.343.239.052.186-.119.247-.011.433-.063.247-.06.183-.061.186-.118.245-.065.37-.231.245-.117.182-.115.183-.01.372-.229.18c-.134.3.19.365.094.685l-.062.184-.06.185-.117.245-.18.43-.286.241-.062.246-.131.741s.097.07.05.188l-.171.12-.116.183-.01.372-.116.183-.117.184c-.111.167.067.272-.069.494l-.172.181c-.21.155-.2.108-.232.304.154.08.198.08.215.317l-.065.37-.118.245-.18.43z" fill="#005491"/><path d="M44.747 47.619l-.16.076c.172-.024.136.05.16-.076zm-1.127-6.366l.172.11-.172-.11zm-6.037-4.35l.169.048c.183-.134.236-.293.409-.405l-.016-.246c-.234.021-.336.08-.484.164-.05.156-.085.206-.078.438zm-7.181 1.775l-.255.268-.123.564-.096.193c-.217.312-.171.486-.11.748l.432-.099.642-.238.096-.193.154-.137.156-.136.159-.074.21-.142.16-.075.322-.09.265-.143.159-.074.247-.392.318-.15.092-.254.36-.338.191-.386.21-.14.154-.135.32-.15.195-.326c.08-.094.25-.155.31-.27l.082-.377.027-.373c.03-.147.084-.276.074-.498-.189-.092-.248-.105-.554-.076l-.324.09-.159.074-.315.211-.159.076c-.005.062-.28-.035-.383.032l-.246.39c-.114.096-.287.006-.433.097l-.154.137-.197.324-.218.018-.2.265-.214.079-.242.45-.323.09-.202.262-.072.498-.16.076c-.131.158-.125.158-.15.198l-.046.126zm3.753 2.452c-.053.293-.169.254-.355.399l-.2.264-.32.15-.486.102c-.22.223-.18.112-.256.267-.07.052.039.122.019.246-.121.163-.223.241-.37.214-.491.144-.422.515-.66.734-.056.051-.237.074-.264.145l.022.307.236.226.283.098.172.107.283.102.227.104.66.004.168.047.328-.026.706-.122.761-.125.15-.198.546-.046.423-.22.27-.085.322-.089c.057-.073.149.041.274-.023l.15-.195.874-.077.16-.074.368-.216.534-.229.15-.198.487-.102.215-.08c.318-.244.342-.04.473-.285l.033-.312.04-.187.092-.255.018-.493.091-.254.028-.372.036-.248.01-.617.151-.197.038-.25.031-.31.041-.187.091-.256.033-.31.095-.191.147-.26.196-.324.035-.249.041-.188.097-.194.146-.259.147-.257.2-.263.094-.193.152-.196.322-.09.169.048c.221-.083.262-.132.483-.164.1.14.052.032.173.108l.337.095.173.108.181.231.164-.014.24.288.169.046.091.485.178.17.027.367c-.105.082-.262.256-.302.395l.022.305-.094.192-.156.138-.036.249-.078.437-.09.255-.034.309-.2.264.027.367-.092.253-.04.188-.092.254-.037.987-.15.197.049.674-.041.187.121.913-.036.25-.01.616-.037.249.173.847.236.227.145.48.51.202.073.24.123.174.086.425.072.239.128.235c-.316.205-.494.444-.73.554l-.382.032c-.19.184-.288.147-.296.457.11.067.095.054.127.234l-.16.075c-.03.042-.66.185-.76.126-.334-.132-.704-.558-.936-.78l-.41-.336-.123-.174-.182-.232-.123-.173-.135-.358-.137-.358-.068-.18-.204-.536-.123-.173-.154-.603s.075-.068.04-.189l-.071-.24-.146-.479c-.188-.094-.204-.095-.277-.038l-.479.223-.155.14-.268.081c-.08.154-.115.285-.133.443l-.332-.032.013.182c-.108.077-.09.107-.264.145-.12-.182-.222-.12-.329.03l-.03.309c.068.06.072.088.122.174l-.437.038c-.058.336-.254.328-.514.473l-.16.075-.21.142c-.135.095-.23.22-.42.28-.022.176-.083.24-.195.325l-.32.149-.157.076-.21.141-.215.08-.15.196-.438.039-.2.262c-.192.12-.84.024-.988.022l-.55-.014-.27.082-.122-.173-.383.032-.168-.048-.168-.046-.392-.09-.172-.109-.17-.047-.172-.11-.337-.093-.286-.162-.174-.107c-.204-.099-.383-.124-.467-.392-.218-.045-.212-.157-.351-.277l-.17-.048-.121-.173-.124-.175-.167-.047c-.215-.253-.308-.325-.574-.322-.102.165-.261.223-.414.343l-.298.455-.213.08c-.235.284-.528.293-.856.319-.231.02-.683.127-.824.007-.125-.023-.141-.039-.228-.101l-.177-.17-.228-.105-.35-.278-.073-.24-.228-.103-.122-.175c-.166-.21-.389-.799-.304-1.143l.22-.757.16-.076.154-.135.483-.164.15-.2.373-.153.21-.14c.208-.208.517-.32.574-.417l.096-.194-.055-.733c-.073-.07-.165-.288-.144-.481l-.027-.367-.11-.73.088-.315.019-.492.091-.255.04-.187.037-.25.096-.192.04-.189.092-.254.305-.334.079-.436.097-.194c.178-.162.263-.12.313-.21l.037-.248.087-.315c.074-.223.382-.533.614-.608l.178-.568.32-.15.195-.324.27-.084c.147-.227.07-.312.136-.381l.21-.14.214-.08.205-.203.256-.268.155-.135c.062-.078.151-.116.205-.203l.71-.06c.02-.233.103-.384.296-.456l.433-.097.159-.076.21-.14 1.092-.092.209-.143.21-.14c.27-.197.472-.011.706-.12l1.193-.224.168.047.392.09.177.169.278.039.182.23.232.165.233.165.172.109.127.235.181.231.192.353.123.174.281.838.081.363.069.179c.114.165-.048.911-.092.99l-.26.208-.123.565-.097.192-.204.202-.124.565-.533.23c-.158.158.1.298-.3.393l-.337-.093-.236.51.016.246c-.179.227-.253.216-.47.347l-.377.094-.241.451-.21.142-.095.192-.429.16-.041.188c-.078.126-.248.183-.424.219zm10.197-13.107l.55.015.229.103.382-.033.497.02.295.284.236.226c.246.16.528.089.637.439.147.158.022.542.113.789l.068.18.123.173.045.612-.356.399c-.043.086-.02.247-.087.315l-.155.137-.378.092c-.184.258-.098.412-.46.471-.246-.26-.413-.027-.723-.124l-.227-.103-.283-.1-.123-.175-.127-.235-.35-.278-.128-.235-.072-.24-.232-.165c-.097-.144-.016-.35-.094-.546l-.129-.235-.026-.368-.096-.545.256-.268.145-.258.16-.076a.972.972 0 0 0 .31-.271zm9.476 9.494c.137-.052.254-.154.464-.153.011 0 .035.085.129.04.164-.08.173-.42.55-.362l.01.061.25.016.01.061.95-.182.01.063.249.015.152.163.118-.024.433.364.023.123.059-.01.022.122.059-.01.104.234.4.18.088.493.06-.012.021.124.06-.01.043.245.06-.01c.204.411-.035.956.09 1.196l.06-.012.022.124.06-.012.22 1.235.2.09.033.184.06-.011.071.752.06-.012.045.246.129.042.022.121.06-.011.11.617.058-.01.185.347.06-.013.103.237.13.039.022.123.06-.012.054.308.06-.01.104.236.058-.011.115.296.341.19.739 1.391c-.096.078-.079.102-.215.168l.043.247.13.038c.036.034.265.337.256.398l-.06.013c-.015.259-.178.313-.278.5l-.724.075.01.061-.652.126-.01-.06-.12.022-.15-.162-.558-.021-.01-.062-.118.023-.012-.062c-.123-.067-.166-.111-.329-.128-.067-.154-.131-.18-.234-.274l-.06.013-.114-.3-.059.013-.022-.124c-.067-.068-.451-.143-.578-.143a1.112 1.112 0 0 0-.256-.397l-.128-.042-.022-.122-.13-.04-.023-.123-.059.011-.044-.246-.06.011-.184-.347-.06.012-.02-.124-.06.01-.023-.123-.059.012-.033-.185-.059.01-.022-.122-.06.011-.125-.36-.06.013-.022-.123-.059.01-.022-.121-.13-.041-.158-.545-.06.013-.021-.122-.06.009-.033-.183-.059.01-.078-.433-.059.013c-.084-.126-.41-.708-.5-.735l-.296.058c-.045.235-.061.426-.338.51l-.01-.06-.286.119-.038.135c-.285.201-.479-.053-.62.31l-.059.011.067.37-.06.012c-.166.215-.383.03-.475.092 0 0-.14.385-.171.417-.18.173-.367.01-.475.09-.001 0-.128.38-.171.418l-.236.045.01.061c-.241.18-.279.134-.42.4l-.06.012.023.123-.059.011c-.063.228.09.05-.075.27l.011.062-.12.024-.096.145-.118.023.011.063-.119.023.011.06-.12.025-.035.132-.832.161.011.061-1.008.196-.012-.061-.12.022-.01-.062c-.123-.066-.165-.113-.33-.129l-.02-.122-.834-.543-.022-.124-.13-.039-.125-.357-.131-.04-.065-.37-.06.012-.184-.348-.06.01-.26-1.801.059-.01-.033-.187.06-.011-.023-.124.06-.011-.04-.567.06-.01-.033-.185.06-.013-.034-.184.06-.012-.045-.246.06-.012-.022-.124.107-.084-.018-.445.06-.01.014-.26.059-.01-.032-.185.06-.01.015-.26.058-.011-.016-.445.06-.01.014-.26.059-.012-.04-.565.06-.013-.022-.122.155-.158-.022-.124.06-.012-.022-.123.06-.01-.034-.185.06-.013.015-.257.06-.013-.062-.69.058-.011.016-.26.059-.01.005-.32.06-.012-.161-1.246.058-.011-.022-.124.06-.011-.022-.124.108-.083-.023-.125c.085-.186.522-.542.813-.604l-.01-.062.555.022.081.112.653-.126.011.062.179-.036.81.42.024.123.129.04.022.122.2.09.034.185.058-.012.022.123.06-.011.022.125.06-.013.087.496.276.52-.058.011.033.185-.06.013.023.122-.06.012.055.309-.058.011.032.185-.06.012-.014.258-.06.012.055.309-.06.01-.051.394-.06.01.022.124-.06.011-.082.91-.372.328c-.015.063.175.304.147.48l-.059.013.023.124-.06.011-.005.32-.06.012c-.056.2-.065.243-.03.518a.75.75 0 0 0 .308.005c.075-.128.107-.076.215-.17l-.01-.062.118-.023-.01-.062.118-.023.086-.207.178-.035-.011-.062.119-.023-.011-.061.118-.024-.011-.061.119-.023-.011-.063.227-.106.036-.135.119-.024.086-.207.118-.023.23-.427.335-.192.182-.355.12-.024.18-.354.06-.01-.033-.186.06-.01-.022-.125.06-.011-.023-.124.059-.011-.021-.124.06-.01.025-.198zM69.924 47.78l.253.004.002-.21-.203-.002-.052.209zm-.758-.216l.303.212v-.157l-.303-.055zm-2.775-1.237c-.213-.003-.273.041-.406.101l.303.109c.05-.095.071-.083.103-.21zm7.65-.561l-.203-.055-.052.208c.077.033.083.042.203.056l.051-.21zm-4.072-3.62l.153.053c-.108-.045-.05-.084-.153-.053zm.256-.207l.151.053c-.108-.045-.05-.084-.151-.053zm1.88-.669l-.203-.001c-.03-.082-.039-.088-.05-.211.078-.03.084-.04.203-.052.03.087.044.127.05.264zm-.094-1.055v.16h.15c.06-.112.021-.053.053-.157l-.203-.003zm-7.855.878c.02.153.061.491.147.58.068.084.11.092.253.108a.585.585 0 0 1 .355-.154h.204l.202-.103.152-.05.254-.051.152-.105.458-.1c.152-.167.357-.153.457-.207l.254-.156.357-.206.153-.105.456-.101.152-.05.153-.052.152-.052.152-.157c.103-.245.408-.373.611-.416.085-.298.215-.178.409-.311l.408-.471.153-.103.153-.104.103-.211.204-.157.052-.156.206-.524.162-1.158c-.035-.118-.12-.223-.15-.37l-.15-.107-.152-.055-.15-.106-.912-.06-.253.05-.203.05-.152.05-.152.054-.203.05-.203.05-.154.158-.202.104-.203.049-.356.102-.356.156-.153.103-.304.103-.102.158-.204.155-.153.104-.358.416-.457.156-.104.368c-.05.041-.215.04-.254.102l-.002.158-.103.368-.003.264-.154.263c-.125.1-.209.027-.254.102l-.001.21-.053.157-.102.211-.054.315c.056.161.078.147.098.316l-.354.051-.052.262.15.055zm9.701-3.757c-.206.197-.258.309.1.318.039.248 0 .366-.006.684-.1.05-.21.168-.306.207l-.254-.002-.305.314-.104.156-.001.317-.003.263a.63.63 0 0 0 .254.055c-.04-.233-.013-.267.003-.526a1.11 1.11 0 0 0 .255-.21c.224.179.18.31.147.476-.142.087-.173.21-.355.26.005.113.049.181.048.212-.31.208-.253.155-.359.418-.197-.043-.356-.081-.555-.005.093.23.065.097.047.368l-.204.157-.355.101-.048-.263-.203-.002c-.016.187-.07.256-.104.421-.096.044-.134.076-.255.103.005.137.098.475.098.475l-.305.049a.583.583 0 0 0-.503-.32c-.043.117-.054.286-.055.473.183-.005.34-.047.405.004l.049.211-.151.051-.356.05-.051.157c-.146.145-.113.213-.307.26-.05.048-.478.132-.608.102l-.203-.003-.103.315c-.12.002-.13.04-.203.05-.131-.13-.085-.142-.302-.16-.07.109-.187.154-.306.209.03.161.08.182.098.368l-.203.104-.255.156-.152.103-.356.209-.154.207-.455-.056-.153.106-.508.098c-.089.086-.132.075-.203.104a.376.376 0 0 1-.102.156c.12.384.266.342.503.428l.202.003.202.106 1.62.068c.399.003.75.007 1.061.114.358.17.738-.03.963-.097l.71.008.202-.051.962.113.758.059.203-.103.253.003.556.057.1.212c.152.239-.055.246.302.267-.016.12-.013.132-.053.21l-.003.368c-.128.07-.178.104-.405.102l-.054.315-.203.157c-.097.102-.257.104-.457.1.018-.186.068-.207.105-.367-.222-.018-.246.058-.407.102-.024.125-.06.165-.103.26l-.658-.005-.557.101-.205.208-.507-.004-.304.103c-.046.235-.003.323.047.474v.157l-.558.048-.305.103-.708-.006-.153.051c-.027.057-.186-.043-.304-.002l-.202.103-.912-.113-.455.049-.354-.057-.254.05-.304-.056-.151-.054-.302-.108-.405-.056-.151-.158-.253-.058-.15-.105-.152-.054-.201-.106-.202-.108-.152-.107-.15-.055-.152-.106-.15-.212c-.29-.168-.39-.115-.452-.373-.21-.062-.27-.234-.403-.371l-.502-.48-.15-.211-.1-.16-.049-.21-.149-.318-.1-.16-.15-.211-.1-.265c-.204-.265-.054-.585-.144-.844l-.15-.16c-.059-.179-.01-.084 0-.156l.004-.37-.045-.632.053-.42-.098-.264c.024-.144.202-.374.156-.579l-.048-.37c-.013-.04-.108-.021-.1-.105.088-.116.095-.129.154-.21l.104-.367.105-.474.204-.208.055-.42.203-.211.055-.42c-.178-.503.179-.938.565-.942.255-.11.128-.055.203-.21l.204-.208.053-.159.255-.26.255-.313.257-.314.357-.366.357-.418.255-.208.153-.104.153-.052.304-.154.103-.158.153-.051.152-.104.305-.155.152-.05.154-.158.608-.047.304-.155.204-.104c.221-.14.718-.013.912-.097l.71-.151 1.064.01.91.166.15.054.151.107.202.056.202.106.2.212.203.054.202.108.2.106.1.213.1.158.403.373.048.317.15.158.1.16v.157l.044.686.098.37.1.211c.12.192.061.294.046.474z" fill="#005491"/><path fill="#FEFEFE" stroke="#005491" stroke-width=".6" d="M354.867 1.337L408.58.85l.454 54.049-53.712.486z"/><path d="M370.19 44.6c.01.507.036.91.077 1.207-.11-.012-1.477 0-1.586.014.022-.402-.028-6.265-.056-6.687.11.012 1.476 0 1.586-.015a6.92 6.92 0 0 0-.056.877c-.006.39-.007.821-.003 1.295l.008.934c.217-.26.45-.547.699-.857a94.416 94.416 0 0 0 1.34-1.716c.185-.245.319-.43.401-.554.09.012 1.013.004 1.123-.01-.11.111-.275.291-.5.54a88.2 88.2 0 0 0-1.436 1.643c-.23.272-.41.486-.537.643.21.316.44.665.696 1.045a139.417 139.417 0 0 0 1.46 2.124c.215.306.387.536.518.691a39.519 39.519 0 0 0-1.78.016c-.333-.49-.66-.988-.98-1.495a90.424 90.424 0 0 0-.98-1.514h-.02c.006.707.014 1.314.025 1.82m6.104-.055c.011.506.037.908.078 1.206a3.004 3.004 0 0 0-.358-.016c-.13 0-.274.002-.435.004l-.435.003a3.078 3.078 0 0 0-.358.023c.022-.402-.028-6.266-.057-6.688.11.013 1.477 0 1.587-.014-.03.195-.05.487-.056.877-.006.39-.007.821-.003 1.295l.008.934a85.818 85.818 0 0 0 2.039-2.574c.185-.245.319-.43.401-.553.091.012 1.013.004 1.123-.01-.109.11-.275.29-.499.54a79.57 79.57 0 0 0-1.438 1.643c-.23.271-.408.486-.535.643.208.316.44.664.695 1.045a134.458 134.458 0 0 0 1.46 2.124c.215.306.388.536.518.691a39.612 39.612 0 0 0-1.78.016c-.333-.49-.66-.988-.98-1.495a82.927 82.927 0 0 0-.98-1.515h-.02c.006.707.014 1.315.025 1.82m5.027-2.26a.65.65 0 0 1 .477-.204.65.65 0 0 1 .48.195.66.66 0 0 1 .203.48.66.66 0 0 1-.195.484.65.65 0 0 1-.477.204.65.65 0 0 1-.48-.195.659.659 0 0 1-.203-.48.658.658 0 0 1 .195-.484m6.247-.923c.308-.837.585-1.639.83-2.407.197.009.686.01.851-.008l-.568 1.388c-.221.54-.452 1.114-.692 1.72a92.66 92.66 0 0 0-.71 1.846 54.105 54.105 0 0 0-.624 1.758 9.042 9.042 0 0 0-.85.008 634.998 634.998 0 0 0-.817-2.116 86.745 86.745 0 0 0-.509-1.27c-.178-.433-.349-.852-.513-1.256l-.464-1.13c-.145-.35-.27-.646-.376-.893.149.012 1.58 0 1.723-.015.111.363.24.744.381 1.145.142.401.29.81.441 1.228.152.417.308.836.47 1.256.162.421.318.834.47 1.242.329-.827.647-1.659.957-2.496m2.397-2.422c.11.013 2.043-.012 2.32-.014.479-.004.77.016 1.01.072.238.056.445.144.62.262.175.119.31.273.406.464.095.19.144.419.146.685.002.266-.05.496-.16.688a1.666 1.666 0 0 1-.399.48 1.943 1.943 0 0 1-.511.302 2.666 2.666 0 0 1-.5.15v.02a2.146 2.146 0 0 1 1.095.379c.181.128.335.294.462.497.128.204.192.451.195.744.003.35-.057.649-.18.897-.124.247-.29.45-.498.608-.208.157-.446.27-.716.333-.2.046-.568.087-1.715.097-.964.009-1.44.014-1.519.025.026-.404-.023-6.267-.056-6.688m3.015 1.223a.902.902 0 0 0-.183-.358.936.936 0 0 0-.32-.24 1.14 1.14 0 0 0-.485-.089c-.142.002-.24.004-.295.008a1.718 1.718 0 0 0-.212.026c-.003.24.018 2.177.02 2.346l.44-.004a1.09 1.09 0 0 0 .75-.314c.104-.1.186-.23.25-.386.062-.156.093-.338.092-.546a1.809 1.809 0 0 0-.057-.443m-.163 2.572c-.204-.222-.5-.331-.888-.328-.09 0-.168.003-.231.007-.065.004-.13.006-.189.007l.004.423c0 .155.018 2.138.019 2.222a7.2 7.2 0 0 0 .546.017.978.978 0 0 0 .742-.353c.095-.114.171-.252.229-.415.056-.163.083-.351.081-.565-.003-.455-.107-.793-.313-1.015m2.747.437c-.002-.26-.041-4.12-.055-4.283.129.012 1.393 0 1.522-.013-.059.63-.043 3.312-.039 3.87.017 1.946.732 2.287 1.735 2.277.996-.008 1.58-.69 1.617-2.19.011-.42-.018-3.54-.021-3.987.09.012.775.006.858-.008-.011.143-.03 3.23-.027 3.651.025 2.965-1.634 3.179-2.628 3.187-.487.005-2.94.017-2.962-2.504m-32.661-3.987c.11.012 2.043-.012 2.32-.015.479-.004.77.016 1.009.072.24.056.446.144.621.262.176.119.31.273.405.464.096.19.145.419.147.685.002.266-.05.496-.16.688a1.666 1.666 0 0 1-.398.48 1.959 1.959 0 0 1-.512.302c-.184.073-.35.123-.5.15v.02c.149.005.323.038.523.098.2.06.39.154.572.281.18.128.335.295.463.497a1.4 1.4 0 0 1 .194.744c.003.35-.057.65-.18.897a1.71 1.71 0 0 1-.498.608c-.208.158-.446.27-.716.333-.2.046-.568.087-1.715.097-.964.01-1.44.014-1.519.025.026-.403-.023-6.267-.056-6.688m3.015 1.224a.898.898 0 0 0-.183-.36.936.936 0 0 0-.32-.24c-.13-.06-.292-.09-.485-.088-.142.002-.24.004-.295.008a1.835 1.835 0 0 0-.212.026c-.003.24.018 2.177.02 2.346l.44-.004a1.09 1.09 0 0 0 .75-.313c.104-.101.186-.23.25-.387.063-.156.093-.338.092-.546a1.809 1.809 0 0 0-.057-.442m-.163 2.571c-.204-.222-.5-.331-.888-.328-.09 0-.168.003-.231.007-.065.004-.13.006-.188.007l.002.423.02 2.223c.09.005.188.011.265.014.077.002.171.003.28.002a.978.978 0 0 0 .743-.352 1.34 1.34 0 0 0 .229-.416c.056-.163.083-.351.082-.565-.004-.454-.108-.793-.314-1.015" fill="#005491"/><g transform="rotate(2.5 233.226 8110.567)"><mask id="a" fill="#fff"><use xlink:href="#a"/></mask><path d="M54.542 1.064l2.797 53.704-53.367 2.814L1.175 3.879l53.367-2.815zm.547-.61L.569 3.327l2.857 54.865 54.52-2.875L55.09.453z" mask="url(#a)"/></g><path d="M404.827 19.708c-5.114-1.439-10.035-1.781-14.452-1.54l1.902 1.967c.119.123-.005.324-.167.272l-.476-.152c-1.223-.392-3.863-.992-7.33-1.375-7.659 1.373-12.72 4.07-12.72 4.07l10.536 10.554s9.862-12.783 22.673-13.472c.184-.01.211-.274.034-.324" fill="#005491"/><path d="M379.422 22.239l4.957-.045a.163.163 0 0 1 .164.163l.042 4.987a.163.163 0 0 1-.162.166l-4.956.045a.164.164 0 0 1-.165-.163l-.042-4.987c0-.091.072-.166.162-.166" fill="#FECC00"/><path d="M359.059 21.594c11.635-5.299 25.35-3.636 30.942-2.37.014.003.687.163.765.183l-8.62-8.91-.178-.177c-14.19-1.345-21.108 7.951-23.113 11.035-.09.138.055.303.204.239" fill="#E4013A"/></g></svg>