<?xml version="1.0" encoding="UTF-8" standalone="no"?>
<svg
   width="55"
   height="55"
   viewBox="0 0 55 55"
   version="1.1"
   id="svg152"
   sodipodi:docname="BKK_VBU_Logo-colors.svg"
   inkscape:version="1.2-beta (1b65182c, 2022-04-05)"
   xmlns:inkscape="http://www.inkscape.org/namespaces/inkscape"
   xmlns:sodipodi="http://sodipodi.sourceforge.net/DTD/sodipodi-0.dtd"
   xmlns:xlink="http://www.w3.org/1999/xlink"
   xmlns="http://www.w3.org/2000/svg"
   xmlns:svg="http://www.w3.org/2000/svg"
   xmlns:rdf="http://www.w3.org/1999/02/22-rdf-syntax-ns#"
   xmlns:cc="http://creativecommons.org/ns#"
   xmlns:dc="http://purl.org/dc/elements/1.1/">
  <metadata
     id="metadata156">
    <rdf:RDF>
      <cc:Work
         rdf:about="">
        <dc:format>image/svg+xml</dc:format>
        <dc:type
           rdf:resource="http://purl.org/dc/dcmitype/StillImage" />
      </cc:Work>
    </rdf:RDF>
  </metadata>
  <sodipodi:namedview
     pagecolor="#ffffff"
     bordercolor="#666666"
     inkscape:document-rotation="0"
     borderopacity="1"
     objecttolerance="10"
     gridtolerance="10"
     guidetolerance="10"
     inkscape:pageopacity="0"
     inkscape:pageshadow="2"
     inkscape:window-width="1662"
     inkscape:window-height="851"
     id="namedview154"
     showgrid="false"
     inkscape:zoom="6.6657578"
     inkscape:cx="36.079919"
     inkscape:cy="28.578896"
     inkscape:window-x="46"
     inkscape:window-y="25"
     inkscape:window-maximized="0"
     inkscape:current-layer="svg152"
     inkscape:pagecheckerboard="0"
     inkscape:deskcolor="#d1d1d1" />
  <defs
     id="defs119">
    <path
       id="a"
       d="M 57.946,0.454 H 0.568 v 57.739 h 57.378 z" />
  </defs>
  <g
     fill="none"
     fill-rule="evenodd"
     id="g150"
     transform="translate(0.1)">
    <path
       d="m 15.552454,44.018175 c 0.006,0.507059 0.0295,0.910235 0.0683,1.207522 -0.10991,-0.01279 -1.47696,-0.01061 -1.58606,0.0026 0.0249,-0.401832 0.017,-6.26504 -0.008,-6.68723 0.10991,0.01279 1.47596,0.0106 1.58606,-0.0036 a 6.92,6.92 0 0 0 -0.0623,0.876575 c -0.009,0.389947 -0.0129,0.820929 -0.0123,1.294945 l 10e-4,0.934034 c 0.21886,-0.258435 0.45392,-0.543755 0.70514,-0.851959 a 94.416,94.416 0 0 0 1.35228,-1.706332 c 0.18676,-0.243665 0.32208,-0.427698 0.40497,-0.551106 0.0899,0.01265 1.01295,0.01127 1.12305,-0.0019 -0.1108,0.110207 -0.27709,0.289017 -0.50387,0.536395 a 88.2,88.2 0 0 0 -1.44776,1.632645 c -0.23195,0.270342 -0.41348,0.483043 -0.5416,0.639127 0.20772,0.3175 0.43521,0.668143 0.68847,1.049972 a 139.417,139.417 0 0 0 1.44471,2.13443 c 0.2128,0.307536 0.38314,0.538765 0.51303,0.694702 a 39.519,39.519 0 0 0 -1.78007,0.0032 c -0.32948,-0.492379 -0.65289,-0.992715 -0.96924,-1.502 a 90.424,90.424 0 0 0 -0.9691,-1.520998 l -0.02,-1.44e-4 c 9.2e-4,0.707025 0.005,1.314067 0.0119,1.820133 m 6.10423,-0.01116 c 0.007,0.506066 0.0305,0.908242 0.0693,1.206529 a 3.004,3.004 0 0 0 -0.35787,-0.01857 c -0.13,-9.34e-4 -0.27401,3.2e-5 -0.43502,8.76e-4 l -0.43501,-1.24e-4 a 3.078,3.078 0 0 0 -0.35816,0.02043 c 0.0249,-0.401832 0.017,-6.266039 -0.009,-6.688237 0.10991,0.01379 1.47696,0.01061 1.58706,-0.0026 -0.0314,0.19478 -0.0535,0.486629 -0.0623,0.876576 -0.009,0.389947 -0.0129,0.820928 -0.0123,1.294945 l 0.001,0.934033 a 85.818,85.818 0 0 0 2.05743,-2.559291 c 0.18675,-0.243665 0.32208,-0.427698 0.40496,-0.550106 0.0909,0.01265 1.01295,0.01128 1.12304,-0.0019 -0.10978,0.109215 -0.27707,0.288018 -0.50286,0.536403 a 79.57,79.57 0 0 0 -1.44976,1.632631 c -0.23194,0.269341 -0.41148,0.483057 -0.53961,0.639141 0.20573,0.317486 0.43522,0.667143 0.68748,1.049964 a 134.458,134.458 0 0 0 1.44471,2.13443 c 0.2128,0.307536 0.38414,0.538773 0.51302,0.694702 a 39.612,39.612 0 0 0 -1.78007,0.0032 c -0.32947,-0.492379 -0.65288,-0.992714 -0.96923,-1.501999 a 82.927,82.927 0 0 0 -0.9691,-1.521999 l -0.02,-1.43e-4 c 9.2e-4,0.707024 0.005,1.315066 0.0119,1.820132 m 5.0431,-2.223841 a 0.65,0.65 0 0 1 0.47845,-0.200569 0.65,0.65 0 0 1 0.47859,0.198442 0.66,0.66 0 0 1 0.19955,0.481445 0.66,0.66 0 0 1 -0.19847,0.482588 0.65,0.65 0 0 1 -0.47845,0.200569 0.65,0.65 0 0 1 -0.47859,-0.198442 0.659,0.659 0 0 1 -0.19955,-0.481446 0.658,0.658 0 0 1 0.19847,-0.482587 m 6.25347,-0.878114 c 0.314,-0.834767 0.59675,-1.634757 0.84726,-2.400977 0.19693,0.01041 0.68591,0.01493 0.85104,-0.0019 l -0.57795,1.383885 c -0.22488,0.538399 -0.45999,1.110726 -0.70434,1.714986 a 92.66,92.66 0 0 0 -0.72324,1.840854 54.105,54.105 0 0 0 -0.63661,1.753474 9.042,9.042 0 0 0 -0.85003,0.0019 634.998,634.998 0 0 0 -0.80178,-2.121812 86.745,86.745 0 0 0 -0.49987,-1.273623 c -0.17489,-0.434267 -0.34287,-0.854484 -0.50397,-1.259652 l -0.45587,-1.133303 c -0.14248,-0.351032 -0.26536,-0.647922 -0.36958,-0.895677 0.14891,0.01307 1.57996,0.01135 1.72306,-0.0026 0.10839,0.363788 0.23466,0.745704 0.37277,1.147707 0.13912,0.402009 0.28418,0.812061 0.43217,1.231135 0.149,0.418081 0.30199,0.83819 0.46097,1.259343 0.15897,0.422152 0.312,0.836262 0.46107,1.245343 0.33493,-0.824616 0.6589,-1.654311 0.9749,-2.489063 m 2.41433,-2.404724 c 0.1099,0.01379 2.04303,0.0027 2.32004,0.0027 0.47902,-5.6e-4 0.76987,0.02153 1.00946,0.07925 0.23759,0.05771 0.44395,0.147192 0.6181,0.266445 0.17414,0.120254 0.30803,0.27522 0.40266,0.466904 0.0936,0.190677 0.14098,0.420023 0.14107,0.686031 9e-5,0.266007 -0.0536,0.495628 -0.16493,0.686833 a 1.666,1.666 0 0 1 -0.40244,0.477122 1.943,1.943 0 0 1 -0.51315,0.298323 2.666,2.666 0 0 1 -0.50107,0.146405 l -1.4e-4,0.02 a 2.146,2.146 0 0 1 1.09225,0.386854 c 0.18007,0.129296 0.33288,0.296398 0.45842,0.500305 0.12653,0.204914 0.18875,0.452367 0.18965,0.745381 4.8e-4,0.350012 -0.0617,0.648574 -0.18644,0.895684 -0.12577,0.246103 -0.29322,0.447906 -0.50235,0.604408 -0.20912,0.155502 -0.44793,0.26679 -0.71837,0.32785 -0.20033,0.04456 -0.56862,0.08292 -1.71566,0.08468 -0.96404,0.0021 -1.44006,0.0037 -1.51914,0.01409 0.0289,-0.403803 0.022,-6.267004 -0.008,-6.68823 m 3.00614,1.24462 a 0.902,0.902 0 0 0 -0.18042,-0.359304 0.936,0.936 0 0 0 -0.31827,-0.242292 1.14,1.14 0 0 0 -0.48435,-0.09248 c -0.14201,9.8e-4 -0.24002,0.0023 -0.29505,0.0059 a 1.718,1.718 0 0 0 -0.21218,0.02448 c -0.005,0.239972 0.002,2.177073 0.003,2.346083 l 0.44002,-8.4e-4 a 1.09,1.09 0 0 0 0.75224,-0.308606 c 0.10471,-0.09925 0.18764,-0.228658 0.25276,-0.384194 0.0631,-0.155551 0.0954,-0.337324 0.0959,-0.545326 a 1.809,1.809 0 0 0 -0.0538,-0.443398 m -0.18146,2.570764 c -0.2024,-0.22346 -0.49761,-0.334583 -0.88563,-0.334369 -0.09,-6.46e-4 -0.16801,0.0018 -0.23104,0.0053 -0.065,0.0035 -0.13004,0.0051 -0.18905,0.0056 l 9.7e-4,0.423018 c -0.001,0.154996 0.003,2.138074 0.003,2.222079 a 7.2,7.2 0 0 0 0.54586,0.02092 0.978,0.978 0 0 0 0.74452,-0.347662 c 0.0958,-0.113315 0.1728,-0.250766 0.23197,-0.413345 0.0572,-0.162594 0.0855,-0.350395 0.0851,-0.564404 2.7e-4,-0.45501 -0.1013,-0.793748 -0.3057,-1.017221 m 2.74379,0.456716 c -1.4e-4,-0.260008 -0.0114,-4.120189 -0.0242,-4.283285 0.12891,0.01293 1.39296,0.01 1.52205,-0.0021 -0.0635,0.62956 -0.0668,3.311606 -0.0668,3.869621 0.003,1.946071 0.71556,2.292197 1.7186,2.289401 0.99603,-8.48e-4 1.58492,-0.678636 1.63269,-2.178332 0.014,-0.41991 0.007,-3.540038 0.008,-3.987048 0.0899,0.01265 0.77494,0.01157 0.85804,-0.0018 -0.012,0.142917 -0.0532,3.229701 -0.0532,3.650712 0.004,2.965103 -1.65679,3.167184 -2.65082,3.168045 -0.48702,0.0015 -2.94005,-0.0041 -2.94394,-2.525206 M 8.3035242,38.551977 c 0.10991,0.01279 2.0430298,0.0027 2.3200498,0.0017 0.47902,-5.6e-4 0.76986,0.02153 1.00846,0.07924 0.23959,0.05772 0.44495,0.147199 0.6191,0.266453 0.17514,0.120261 0.30803,0.275219 0.40166,0.466896 0.0946,0.190685 0.14198,0.420031 0.14207,0.686038 9e-5,0.266008 -0.0536,0.495628 -0.16493,0.686833 a 1.666,1.666 0 0 1 -0.40144,0.47713 1.959,1.959 0 0 1 -0.51416,0.298315 c -0.18452,0.07168 -0.35087,0.120484 -0.50106,0.146406 l -1.4e-4,0.02 c 0.14896,0.0061 0.32271,0.04032 0.52228,0.101754 0.19956,0.06143 0.38888,0.156796 0.56997,0.2851 0.17907,0.129289 0.33287,0.297398 0.45941,0.500312 a 1.4,1.4 0 0 1 0.18866,0.745374 c 4.8e-4,0.350013 -0.0617,0.649574 -0.18644,0.895684 a 1.71,1.71 0 0 1 -0.50235,0.604408 c -0.20913,0.156503 -0.44793,0.266791 -0.71838,0.32785 -0.20032,0.04456 -0.56861,0.08292 -1.7156502,0.08468 -0.9640496,0.0031 -1.4400596,0.0037 -1.5191396,0.01409 0.0289,-0.402803 0.022,-6.267003 -0.008,-6.688229 m 3.0061298,1.24562 a 0.898,0.898 0 0 0 -0.18041,-0.361305 0.936,0.936 0 0 0 -0.31826,-0.242292 c -0.12957,-0.06093 -0.29135,-0.0921 -0.48436,-0.09148 -0.14201,9.81e-4 -0.24002,0.0023 -0.29505,0.0059 a 1.835,1.835 0 0 0 -0.2121802,0.02448 c -0.005,0.239972 0.002,2.177073 0.003,2.346083 l 0.4400202,-8.4e-4 a 1.09,1.09 0 0 0 0.75223,-0.307606 c 0.10472,-0.100251 0.18764,-0.228659 0.25277,-0.385195 0.0641,-0.155544 0.0954,-0.337323 0.0959,-0.545325 a 1.809,1.809 0 0 0 -0.0538,-0.442398 m -0.18146,2.569763 c -0.2024,-0.223459 -0.49761,-0.334582 -0.88562,-0.334369 -0.09,-6.46e-4 -0.16801,0.0018 -0.23104,0.0053 -0.065,0.0035 -0.1300402,0.0051 -0.1880502,0.0057 l -10e-4,0.423003 0.004,2.223087 c 0.09,0.0056 0.1879202,0.01235 0.2648902,0.0159 0.077,0.0026 0.17098,0.0042 0.27998,0.004 a 0.978,0.978 0 0 0 0.74551,-0.346655 1.34,1.34 0 0 0 0.23198,-0.414345 c 0.0572,-0.162593 0.0855,-0.350395 0.0861,-0.564396 -7.4e-4,-0.454017 -0.10231,-0.793755 -0.30671,-1.017229"
       fill="#005491"
       id="path135" />
    <g
       transform="rotate(2.9114659,61.83862,-7.4636248)"
       id="g142">
      <mask
         id="b"
         fill="#ffffff">
        <use
           xlink:href="#a"
           id="use137" />
      </mask>
      <path
         d="M 54.542,1.064 57.339,54.768 3.972,57.582 1.175,3.879 Z M 55.089,0.454 0.569,3.327 3.426,58.192 57.946,55.317 55.09,0.453 Z"
         mask="url(#b)"
         id="path140" />
    </g>
    <path
       d="m 50.367324,19.375558 c -5.10354,-1.475689 -10.02195,-1.853019 -14.44057,-1.643746 l 1.88783,1.980609 c 0.11811,0.123851 -0.007,0.323955 -0.16895,0.270793 l -0.4749,-0.155414 c -1.22015,-0.400773 -3.85578,-1.019716 -7.31994,-1.427604 -7.66866,1.317962 -12.7489,3.978548 -12.7489,3.978548 l 10.45994,10.629391 c 0,0 9.95355,-12.711848 22.76916,-13.30883 0.18407,-0.0087 0.21297,-0.272477 0.0363,-0.323747"
       fill="#005491"
       id="path144" />
    <path
       d="m 24.944804,21.72405 4.95719,-0.0094 a 0.163,0.163 0 0 1 0.16283,0.164174 l 0.006,4.987173 a 0.163,0.163 0 0 1 -0.16318,0.164832 l -4.9562,0.0094 a 0.164,0.164 0 0 1 -0.16382,-0.164181 l -0.006,-4.987173 c 6.5e-4,-0.091 0.0732,-0.165478 0.16319,-0.164832"
       fill="#fecc00"
       id="path146" />
    <path
       d="M 4.5869642,20.932832 C 16.259714,15.717524 29.962414,17.478974 35.545184,18.785099 c 0.014,0.0031 0.68581,0.16793 0.76366,0.188489 l -8.55579,-8.971672 -0.17672,-0.1782746 C 13.396354,8.3767724 6.4117742,17.622851 4.3846842,20.692373 c -0.091,0.13735 0.0528,0.303387 0.20228,0.240459"
       fill="#e4013a"
       id="path148" />
  </g>
  <rect
     style="fill:none;fill-opacity:1;stroke:#005491;stroke-width:0.887965;stroke-dasharray:none;stroke-opacity:1"
     id="rect7089"
     width="53.112034"
     height="53.112034"
     x="0.94398218"
     y="0.94398218" />
</svg>
