<?xml version="1.0" encoding="UTF-8" standalone="no"?>
<svg width="16px" height="16px" viewBox="0 0 16 16" version="1.1" xmlns="http://www.w3.org/2000/svg" xmlns:xlink="http://www.w3.org/1999/xlink">
    <!-- Generator: Sketch 3.8.3 (29802) - http://www.bohemiancoding.com/sketch -->
    <title>favicon</title>
    <desc>Created with Sketch.</desc>
    <defs></defs>
    <g id="Module" stroke="none" stroke-width="1" fill="none" fill-rule="evenodd">
        <g id="favicon">
            <g id="Page-1" transform="translate(-1.000000, 4.000000)">
                <path d="M19.9076167,4.27749705 C17.70045,3.62601181 15.5727,3.45659504 13.6606167,3.54500118 L14.4765333,4.4150366 C14.5275333,4.46944038 14.4732833,4.55716647 14.4032,4.53370484 L14.1977833,4.46493506 C13.6703667,4.2883778 12.5302,4.0146588 11.0316167,3.83283117 C7.71303333,4.40466588 5.51353333,5.56771665 5.51353333,5.56771665 L10.0335333,10.238026 C10.0335333,10.238026 14.3467,4.67073436 19.8918667,4.41962692 C19.9716167,4.41605667 19.9842833,4.30010862 19.9076167,4.27749705" id="Fill-1" fill="#005193"></path>
                <path d="M8.90721667,5.28651712 L11.0516333,5.28651712 C11.0908,5.28651712 11.12255,5.31890437 11.12255,5.35877214 L11.12255,7.54631405 C11.12255,7.58618182 11.0908,7.61856907 11.0516333,7.61856907 L8.90721667,7.61856907 C8.86805,7.61856907 8.83638333,7.58618182 8.83638333,7.54631405 L8.83638333,5.35877214 C8.83638333,5.31890437 8.86805,5.28651712 8.90721667,5.28651712" id="Fill-3" fill="#FDC82F"></path>
                <path d="M0.0993583333,4.92282786 C5.15260833,2.64509469 11.0804417,3.42893412 13.4951083,4.00629421 C13.5011917,4.00782432 13.7916083,4.08058937 13.8253583,4.0896 L10.1283583,0.14745124 L10.051775,0.0693308146 C3.91760833,-0.576884061 0.891025,3.47296718 0.012275,4.81725053 C-0.0268916667,4.8772647 0.034775,4.95053979 0.0993583333,4.92282786" id="Fill-5" fill="#D0103A"></path>
            </g>
        </g>
    </g>
</svg>