<svg width="172" height="51" viewBox="0 0 172 51" fill="none" xmlns="http://www.w3.org/2000/svg">
<g clip-path="url(#clip0_762_2789)">
<path fill-rule="evenodd" clip-rule="evenodd" d="M165.627 1.02064C168.573 1.02064 170.984 3.42756 170.984 6.375V44.625C170.984 47.5724 168.589 49.9794 165.627 49.9794H6.37271C3.42684 49.9794 1.01571 47.5724 1.01571 44.625V6.375C1.01571 3.42756 3.41102 1.02064 6.37271 1.02064H165.627ZM165.627 0H6.37271C2.86044 0 0 2.87431 0 6.375V44.625C0 48.1384 2.86044 51 6.37271 51H165.627C169.136 51 172 48.1384 172 44.625V6.375C172 2.87431 169.136 0 165.627 0Z" fill="white"/>
<path d="M90.6104 16.8706C89.4618 16.8706 88.4936 16.4667 87.7278 15.6719C86.9684 14.8992 86.5444 13.8341 86.5634 12.7467C86.5634 11.5861 86.9558 10.6037 87.7278 9.82467C88.4904 9.02978 89.4587 8.62598 90.6073 8.62598C91.7432 8.62598 92.7115 9.02978 93.4899 9.82467C94.2619 10.6291 94.6543 11.6116 94.6543 12.7467C94.6416 13.9104 94.2493 14.8929 93.4899 15.6687C92.7273 16.4699 91.759 16.8706 90.6104 16.8706ZM56.4339 16.8706C55.3106 16.8706 54.336 16.4731 53.5386 15.6878C52.7476 14.9056 52.3457 13.9167 52.3457 12.7499C52.3457 11.583 52.7476 10.5941 53.5386 9.81195C54.3202 9.0266 55.2947 8.62916 56.4339 8.62916C56.9908 8.62916 57.5318 8.74044 58.0508 8.96619C58.5602 9.18558 58.9747 9.48446 59.2816 9.8501L59.3576 9.94231L58.5001 10.7881L58.4115 10.6831C57.9274 10.1045 57.2787 9.82149 56.4212 9.82149C55.6555 9.82149 54.9878 10.0949 54.4372 10.6355C53.8835 11.1792 53.6019 11.8914 53.6019 12.753C53.6019 13.6147 53.8835 14.3269 54.4372 14.8706C54.9878 15.4111 55.6555 15.6846 56.4212 15.6846C57.2376 15.6846 57.9242 15.4111 58.4589 14.8706C58.7754 14.5527 58.9715 14.1075 59.0412 13.5447H56.2915V12.3556H60.2214L60.2372 12.4637C60.2657 12.664 60.2942 12.8707 60.2942 13.0615C60.2942 14.1584 59.9651 15.0455 59.3133 15.7005C58.5729 16.4763 57.6046 16.8706 56.4339 16.8706ZM101.875 16.702H100.663L96.9515 10.734L96.9831 11.8087V16.6989H95.7712V8.79767H97.154L97.192 8.85808L100.682 14.4795L100.65 13.408V8.79767H101.875V16.702ZM81.5039 16.702H80.2761V9.98682H78.1466V8.79767H83.6302V9.98682H81.5007V16.702H81.5039ZM77.1467 16.702H75.9222V8.79767H77.1467V16.702ZM70.2646 16.702H69.04V9.98682H66.9105V8.79767H72.3941V9.98682H70.2646V16.702ZM66.1353 16.6893H61.4396V8.79767H66.1353V9.98682H62.6673V12.1553H65.7967V13.3317H62.6673V15.5002H66.1353V16.6893ZM88.6265 14.8547C89.1739 15.4048 89.8384 15.6814 90.6104 15.6814C91.4047 15.6814 92.0533 15.4111 92.5944 14.8547C93.1323 14.3142 93.4044 13.6052 93.4044 12.7499C93.4044 11.8946 93.1323 11.1823 92.5975 10.645C92.0501 10.0949 91.3825 9.81831 90.6136 9.81831C89.8194 9.81831 89.1707 10.0886 88.6328 10.645C88.0949 11.1855 87.8228 11.8946 87.8228 12.7499C87.8228 13.6052 88.0917 14.3174 88.6265 14.8547Z" fill="white"/>
<path fill-rule="evenodd" clip-rule="evenodd" d="M86.4498 27.7389C83.4596 27.7389 81.0358 30.0186 81.0358 33.1632C81.0358 36.2791 83.4755 38.5875 86.4498 38.5875C89.44 38.5875 91.8638 36.2919 91.8638 33.1632C91.8638 30.0186 89.44 27.7389 86.4498 27.7389ZM86.4498 36.4381C84.8139 36.4381 83.4058 35.0773 83.4058 33.1505C83.4058 31.195 84.8171 29.8628 86.4498 29.8628C88.0857 29.8628 89.4938 31.195 89.4938 33.1505C89.4969 35.09 88.0857 36.4381 86.4498 36.4381ZM74.6378 27.7389C71.6476 27.7389 69.2238 30.0186 69.2238 33.1632C69.2238 36.2791 71.6635 38.5875 74.6378 38.5875C77.628 38.5875 80.0518 36.2919 80.0518 33.1632C80.0518 30.0186 77.6248 27.7389 74.6378 27.7389ZM74.6378 36.4381C73.0019 36.4381 71.5938 35.0773 71.5938 33.1505C71.5938 31.195 73.0051 29.8628 74.6378 29.8628C76.2737 29.8628 77.6818 31.195 77.6818 33.1505C77.6818 35.09 76.2737 36.4381 74.6378 36.4381ZM60.5824 29.3954V31.691H66.066C65.8983 32.9788 65.4743 33.9295 64.8256 34.5813C64.0219 35.3889 62.7815 36.2664 60.595 36.2664C57.2252 36.2664 54.5894 33.532 54.5894 30.1458C54.5894 26.7596 57.2252 24.0251 60.595 24.0251C62.4145 24.0251 63.7403 24.7469 64.7243 25.669L66.3444 24.041C64.9775 22.7247 63.1581 21.7168 60.6077 21.7168C55.9848 21.7168 52.1055 25.5005 52.1055 30.1331C52.1055 34.7784 55.9816 38.5493 60.6077 38.5493C63.1043 38.5493 64.9775 37.729 66.4583 36.1838C67.9677 34.6671 68.4455 32.5273 68.4455 30.8008C68.4455 30.2634 68.4043 29.7801 68.3189 29.37H60.5792C60.5824 29.3668 60.5824 29.3954 60.5824 29.3954ZM118.073 31.1823C117.62 29.9646 116.254 27.7261 113.45 27.7261C110.672 27.7261 108.362 29.9232 108.362 33.1505C108.362 36.1965 110.647 38.5748 113.719 38.5748C116.187 38.5748 117.624 37.0581 118.215 36.1679L116.383 34.9342C115.776 35.8404 114.931 36.4349 113.732 36.4349C112.52 36.4349 111.672 35.8817 111.108 34.7911L118.326 31.7864C118.326 31.7896 118.073 31.1823 118.073 31.1823ZM110.713 32.9947C110.656 30.8993 112.333 29.8342 113.532 29.8342C114.478 29.8342 115.266 30.3016 115.535 30.982L110.713 32.9947ZM104.85 38.2505H107.22V22.3146H104.85V38.2505ZM100.958 28.9439H100.872C100.338 28.3048 99.3218 27.7261 98.0245 27.7261C95.3317 27.7261 92.851 30.1076 92.851 33.1664C92.851 36.2124 95.3191 38.5652 98.0245 38.5652C99.306 38.5652 100.338 37.9834 100.872 37.3316H100.958V38.1106C100.958 40.1804 99.8566 41.2965 98.0814 41.2965C96.6291 41.2965 95.7273 40.2472 95.3602 39.3697L93.3003 40.2345C93.892 41.6653 95.471 43.4363 98.0783 43.4363C100.856 43.4363 103.211 41.7925 103.211 37.7831V28.0505H100.97V28.9439C100.974 28.9439 100.958 28.9439 100.958 28.9439ZM98.2365 36.4381C96.6006 36.4381 95.2337 35.0645 95.2337 33.1664C95.2337 31.2523 96.6006 29.866 98.2365 29.866C99.8566 29.866 101.113 31.2682 101.113 33.1664C101.129 35.0645 99.8597 36.4381 98.2365 36.4381ZM129.17 22.3146H123.503V38.2505H125.873V32.2157H129.173C131.796 32.2157 134.375 30.3048 134.375 27.2715C134.375 24.2382 131.806 22.3146 129.17 22.3146ZM129.239 29.99H125.87V24.5212H129.239C131.015 24.5212 132.018 25.9933 132.018 27.2556C132.018 28.5051 131.002 29.99 129.239 29.99ZM143.874 27.7102C142.153 27.7102 140.377 28.4765 139.643 30.1458L141.744 31.0233C142.197 30.1458 143.026 29.8469 143.902 29.8469C145.13 29.8469 146.37 30.5846 146.399 31.9009V32.0694C145.975 31.8278 145.045 31.4589 143.931 31.4589C141.662 31.4589 139.362 32.7053 139.362 35.0423C139.362 37.1821 141.222 38.5557 143.295 38.5557C144.886 38.5557 145.763 37.8339 146.31 36.9977H146.396V38.2314H148.68V32.1266C148.68 29.2841 146.579 27.7102 143.874 27.7102ZM143.576 36.4381C142.801 36.4381 141.716 36.0566 141.716 35.0773C141.716 33.8436 143.07 33.3762 144.225 33.3762C145.269 33.3762 145.763 33.602 146.383 33.9136C146.212 35.3443 145.01 36.4254 143.576 36.4381ZM157.015 28.0505L154.294 34.9628H154.208L151.389 28.0505H148.839L153.069 37.7131L150.658 43.0834H153.126L159.635 28.0505H157.015ZM135.682 38.2505H138.052V22.3146H135.682V38.2505Z" fill="white"/>
<path fill-rule="evenodd" clip-rule="evenodd" d="M14.5338 12.4594C14.1954 12.8229 14 13.3784 14 14.1055V39.8939C14 40.621 14.1954 41.1765 14.5455 41.5255L14.6359 41.604L29.1281 27.1553V26.8325L14.6243 12.3809L14.5338 12.4594Z" fill="white"/>
<path fill-rule="evenodd" clip-rule="evenodd" d="M33.9508 31.9864L29.1172 27.1673V26.8299L33.9508 22.0107L34.0559 22.0747L39.7734 25.3146C41.4099 26.2337 41.4099 27.7518 39.7734 28.6825L34.0559 31.9224L33.9508 31.9864Z" fill="white"/>
<path fill-rule="evenodd" clip-rule="evenodd" d="M34.0545 31.9219L29.1158 26.998L14.5332 41.5369C15.067 42.1069 15.9626 42.1709 16.9632 41.6154L34.0545 31.9219Z" fill="white"/>
<path fill-rule="evenodd" clip-rule="evenodd" d="M34.0545 22.0742L16.9632 12.3952C15.9626 11.8251 15.0641 11.9037 14.5332 12.4737L29.1158 26.998L34.0545 22.0742Z" fill="white"/>
<path opacity="0.2" fill-rule="evenodd" clip-rule="evenodd" d="M33.9495 31.8174L16.9749 41.4324C16.0268 41.9763 15.1809 41.9384 14.6354 41.444L14.5449 41.5342L14.6354 41.6127C15.1809 42.1042 16.0268 42.1449 16.9749 41.6011L34.0662 31.9221L33.9495 31.8174Z" fill="white"/>
<path opacity="0.12" fill-rule="evenodd" clip-rule="evenodd" d="M39.7727 28.5133L33.9355 31.8172L34.0406 31.9219L39.7581 28.682C40.5778 28.2166 40.9804 27.6059 40.9804 26.998C40.9308 27.5565 40.5136 28.0858 39.7727 28.5133Z" fill="white"/>
<path opacity="0.25" fill-rule="evenodd" clip-rule="evenodd" d="M16.9638 12.5641L39.7726 25.483C40.5136 25.8988 40.9307 26.4427 40.9949 26.9982C40.9949 26.3904 40.5924 25.7796 39.7726 25.3143L16.9638 12.3954C15.3273 11.4618 14 12.2412 14 14.1055V14.2742C14 12.407 15.3273 11.6421 16.9638 12.5641Z" fill="white"/>
</g>
<defs>
<clipPath id="clip0_762_2789">
<rect width="172" height="51" fill="white"/>
</clipPath>
</defs>
</svg>
