<svg width="244" height="244" viewBox="0 0 244 244" fill="none" xmlns="http://www.w3.org/2000/svg">
<g filter="url(#filter0_d_164_1146)">
<rect x="30" y="30" width="184" height="184" rx="92" fill="white" shape-rendering="crispEdges"/>
<path d="M77 157.003V112.355C77 109.011 78.671 105.889 81.453 104.034L116.453 80.701C119.812 78.4617 124.188 78.4617 127.547 80.701L162.547 104.034C165.329 105.889 167 109.011 167 112.355V157.003M77 157.003C77 162.526 81.4772 167.003 87 167.003H157C162.523 167.003 167 162.526 167 157.003M77 157.003L110.75 134.503M167 157.003L133.25 134.503M77 112.003L110.75 134.503M167 112.003L133.25 134.503M133.25 134.503L127.547 138.305C124.188 140.544 119.812 140.544 116.453 138.305L110.75 134.503" stroke="#4D93C6" stroke-width="10" stroke-linecap="round" stroke-linejoin="round"/>
</g>
<rect x="172" y="32" width="40" height="40" rx="20" fill="#F34671"/>
<path d="M194 44.5645V59.4358H190.413V47.9192H190.326L187 49.9524V46.8445L190.667 44.5645H194Z" fill="white"/>
<defs>
<filter id="filter0_d_164_1146" x="0" y="0" width="244" height="244" filterUnits="userSpaceOnUse" color-interpolation-filters="sRGB">
<feFlood flood-opacity="0" result="BackgroundImageFix"/>
<feColorMatrix in="SourceAlpha" type="matrix" values="0 0 0 0 0 0 0 0 0 0 0 0 0 0 0 0 0 0 127 0" result="hardAlpha"/>
<feOffset/>
<feGaussianBlur stdDeviation="15"/>
<feComposite in2="hardAlpha" operator="out"/>
<feColorMatrix type="matrix" values="0 0 0 0 0.647059 0 0 0 0 0.847059 0 0 0 0 1 0 0 0 0.8 0"/>
<feBlend mode="normal" in2="BackgroundImageFix" result="effect1_dropShadow_164_1146"/>
<feBlend mode="normal" in="SourceGraphic" in2="effect1_dropShadow_164_1146" result="shape"/>
</filter>
</defs>
</svg>
